<svg width="582" height="554" viewBox="0 0 582 554" fill="none" xmlns="http://www.w3.org/2000/svg">
<path d="M547.743 497.5C565.692 497.5 580.243 512.051 580.243 530V551.5H352.5V497.5H547.743Z" fill="white" stroke="black" stroke-width="3"/>
<path d="M161.5 521C161.5 494.214 183.214 472.5 210 472.5H348.5V501C348.5 527.786 326.786 549.5 300 549.5H161.5V521Z" fill="white" stroke="black" stroke-width="3"/>
<path d="M167.597 266.5C129.988 266.5 99.5 296.988 99.5 334.597L99.5 433.403C99.5 471.012 129.988 501.5 167.597 501.5L415.403 501.5C453.012 501.5 483.5 471.012 483.5 433.403L483.5 391.329C483.5 322.388 427.612 266.5 358.671 266.5L167.597 266.5Z" fill="white" stroke="black" stroke-width="3"/>
<circle cx="375" cy="443" r="108.5" fill="white" stroke="black" stroke-width="3"/>
<path d="M242.5 523C242.5 496.214 264.214 474.5 291 474.5H407.5V503C407.5 529.786 385.786 551.5 359 551.5H242.5V523Z" fill="white" stroke="black" stroke-width="3"/>
<path d="M260 526C260 498.386 282.386 476 310 476H424V500C424 527.614 401.614 550 374 550H260V526Z" fill="white"/>
<rect x="174.5" y="363.5" width="54" height="189" rx="13.5" fill="white" stroke="black" stroke-width="3"/>
<rect x="99.5" y="360.5" width="54" height="189" rx="13.5" fill="white" stroke="black" stroke-width="3"/>
<rect x="176" y="333" width="51" height="192" rx="15" fill="white"/>
<rect x="101" y="319" width="51" height="192" rx="15" fill="white"/>
<rect x="118.5" y="258.5" width="142" height="41" rx="15.5" fill="white" stroke="black" stroke-width="3"/>
<mask id="path-12-inside-1_656_8246" fill="white">
<path d="M133.001 56.3156C133.29 44.7868 124.997 34.8263 113.606 33.0222L91.4722 29.5165C80.1696 27.7263 69.2702 34.5177 65.8965 45.4525L14.9611 210.541C7.06544 236.132 23.6707 262.782 50.1223 266.971L77.8015 271.355C104.075 275.517 128.004 255.593 128.671 229L133.001 56.3156Z"/>
<path d="M133.001 56.3156C133.29 44.7868 124.997 34.8263 113.606 33.0222L91.4722 29.5165C80.1696 27.7263 69.2702 34.5177 65.8965 45.4525L14.9611 210.541C7.06545 236.132 23.6707 262.782 50.1223 266.971L77.8015 271.355C104.075 275.517 128.004 255.593 128.671 229L133.001 56.3156Z"/>
<path d="M133.001 56.3157C133.29 44.7869 124.997 34.8263 113.606 33.0223L91.4722 29.5166C80.1696 27.7264 69.2702 34.5177 65.8965 45.4525L14.9611 210.541C7.06544 236.132 23.6707 262.782 50.1223 266.971L77.8015 271.355C104.075 275.517 128.004 255.593 128.671 229L133.001 56.3157Z"/>
</mask>
<path d="M133.001 56.3156C133.29 44.7868 124.997 34.8263 113.606 33.0222L91.4722 29.5165C80.1696 27.7263 69.2702 34.5177 65.8965 45.4525L14.9611 210.541C7.06544 236.132 23.6707 262.782 50.1223 266.971L77.8015 271.355C104.075 275.517 128.004 255.593 128.671 229L133.001 56.3156Z" fill="white"/>
<path d="M133.001 56.3156C133.29 44.7868 124.997 34.8263 113.606 33.0222L91.4722 29.5165C80.1696 27.7263 69.2702 34.5177 65.8965 45.4525L14.9611 210.541C7.06545 236.132 23.6707 262.782 50.1223 266.971L77.8015 271.355C104.075 275.517 128.004 255.593 128.671 229L133.001 56.3156Z" fill="white"/>
<path d="M133.001 56.3157C133.29 44.7869 124.997 34.8263 113.606 33.0223L91.4722 29.5166C80.1696 27.7264 69.2702 34.5177 65.8965 45.4525L14.9611 210.541C7.06544 236.132 23.6707 262.782 50.1223 266.971L77.8015 271.355C104.075 275.517 128.004 255.593 128.671 229L133.001 56.3157Z" fill="white"/>
<path d="M128.671 229L125.672 228.925L128.671 229ZM14.9611 210.541L12.0945 209.657L14.9611 210.541ZM65.8965 45.4525L68.7631 46.3369L65.8965 45.4525ZM133.001 56.3156L136 56.3908L133.001 56.3156ZM128.671 229L125.672 228.925L128.671 229ZM14.9611 210.541L12.0944 209.657L14.9611 210.541ZM65.8965 45.4525L68.7631 46.337L65.8965 45.4525ZM133.001 56.3157L136 56.3909L133.001 56.3157ZM65.8965 45.4525L68.7631 46.3369L65.8965 45.4525ZM113.137 35.9853L91.0029 32.4795L91.9415 26.5534L114.076 30.0591L113.137 35.9853ZM68.7631 46.3369L17.8278 211.426L12.0945 209.657L63.0298 44.568L68.7631 46.3369ZM50.5916 264.008L78.2708 268.392L77.3322 274.318L49.653 269.934L50.5916 264.008ZM125.672 228.925L130.002 56.2404L136 56.3908L131.67 229.075L125.672 228.925ZM113.137 35.9853L91.0029 32.4795L91.9415 26.5534L114.076 30.0591L113.137 35.9853ZM68.7631 46.3369L17.8278 211.426L12.0945 209.657L63.0298 44.568L68.7631 46.3369ZM50.5916 264.008L78.2708 268.392L77.3322 274.318L49.653 269.934L50.5916 264.008ZM125.672 228.925L130.002 56.2404L136 56.3908L131.67 229.075L125.672 228.925ZM78.2708 268.392C102.753 272.27 125.05 253.705 125.672 228.925L131.67 229.075C130.958 257.481 105.397 278.763 77.3322 274.318L78.2708 268.392ZM17.8278 211.426C10.4704 235.272 25.9436 260.104 50.5916 264.008L49.653 269.934C21.3979 265.459 3.66044 236.992 12.0945 209.657L17.8278 211.426ZM91.0029 32.4795C81.1746 30.9229 71.6968 36.8284 68.7631 46.3369L63.0298 44.568C66.8436 32.2069 79.1647 24.5298 91.9415 26.5534L91.0029 32.4795ZM114.076 30.0591C126.952 32.0985 136.327 43.3583 136 56.3908L130.002 56.2404C130.254 46.2154 123.042 37.554 113.137 35.9853L114.076 30.0591ZM113.137 35.9853L91.0029 32.4796L91.9415 26.5535L114.076 30.0592L113.137 35.9853ZM68.7631 46.337L17.8278 211.426L12.0944 209.657L63.0298 44.5681L68.7631 46.337ZM50.5916 264.008L78.2708 268.392L77.3322 274.318L49.653 269.935L50.5916 264.008ZM125.672 228.925L130.002 56.2405L136 56.3909L131.67 229.075L125.672 228.925ZM78.2708 268.392C102.753 272.27 125.05 253.705 125.672 228.925L131.67 229.075C130.958 257.481 105.397 278.764 77.3322 274.318L78.2708 268.392ZM17.8278 211.426C10.4704 235.272 25.9436 260.105 50.5916 264.008L49.653 269.935C21.3979 265.459 3.66044 236.992 12.0944 209.657L17.8278 211.426ZM91.0029 32.4796C81.1746 30.923 71.6968 36.8285 68.7631 46.337L63.0298 44.5681C66.8436 32.207 79.1647 24.5298 91.9415 26.5535L91.0029 32.4796ZM114.076 30.0592C126.952 32.0986 136.327 43.3583 136 56.3909L130.002 56.2405C130.254 46.2154 123.042 37.5541 113.137 35.9853L114.076 30.0592ZM78.2708 268.392C102.753 272.27 125.05 253.705 125.672 228.925L131.67 229.075C130.958 257.481 105.397 278.763 77.3322 274.318L78.2708 268.392ZM17.8278 211.426C10.4704 235.272 25.9436 260.104 50.5916 264.008L49.653 269.934C21.3979 265.459 3.66045 236.992 12.0945 209.657L17.8278 211.426ZM91.0029 32.4795C81.1746 30.9229 71.6968 36.8284 68.7631 46.3369L63.0298 44.568C66.8436 32.2069 79.1647 24.5298 91.9415 26.5534L91.0029 32.4795ZM114.076 30.0591C126.952 32.0985 136.327 43.3583 136 56.3908L130.002 56.2404C130.254 46.2154 123.042 37.554 113.137 35.9853L114.076 30.0591Z" fill="black" mask="url(#path-12-inside-1_656_8246)"/>
<path d="M70.6792 73.6253C75.9046 32.403 110.972 1.5 152.524 1.5H206.012C246.698 1.5 281.31 31.1622 287.539 71.369L305.511 187.369C313.258 237.371 274.582 282.5 223.984 282.5H137.82C88.1391 282.5 49.7274 238.912 55.975 189.625L70.6792 73.6253Z" fill="white" stroke="black" stroke-width="3"/>
<mask id="path-15-inside-2_656_8246" fill="white">
<path d="M241.911 56.3066C241.622 44.7778 249.915 34.8172 261.306 33.0132L283.44 29.5074C294.742 27.7173 305.642 34.5086 309.016 45.4434L359.951 210.532C367.847 236.123 351.241 262.773 324.79 266.962L297.111 271.346C270.837 275.508 246.908 255.584 246.241 228.991L241.911 56.3066Z"/>
<path d="M241.911 56.3066C241.622 44.7778 249.915 34.8172 261.306 33.0132L283.44 29.5074C294.742 27.7173 305.642 34.5086 309.016 45.4434L359.951 210.532C367.847 236.123 351.241 262.773 324.79 266.962L297.111 271.346C270.837 275.508 246.908 255.584 246.241 228.991L241.911 56.3066Z"/>
<path d="M241.911 56.3067C241.622 44.7779 249.915 34.8173 261.306 33.0132L283.44 29.5075C294.742 27.7174 305.642 34.5087 309.016 45.4435L359.951 210.532C367.847 236.123 351.241 262.773 324.79 266.962L297.111 271.346C270.837 275.508 246.908 255.584 246.241 228.991L241.911 56.3067Z"/>
</mask>
<path d="M241.911 56.3066C241.622 44.7778 249.915 34.8172 261.306 33.0132L283.44 29.5074C294.742 27.7173 305.642 34.5086 309.016 45.4434L359.951 210.532C367.847 236.123 351.241 262.773 324.79 266.962L297.111 271.346C270.837 275.508 246.908 255.584 246.241 228.991L241.911 56.3066Z" fill="white"/>
<path d="M241.911 56.3066C241.622 44.7778 249.915 34.8172 261.306 33.0132L283.44 29.5074C294.742 27.7173 305.642 34.5086 309.016 45.4434L359.951 210.532C367.847 236.123 351.241 262.773 324.79 266.962L297.111 271.346C270.837 275.508 246.908 255.584 246.241 228.991L241.911 56.3066Z" fill="white"/>
<path d="M241.911 56.3067C241.622 44.7779 249.915 34.8173 261.306 33.0132L283.44 29.5075C294.742 27.7174 305.642 34.5087 309.016 45.4435L359.951 210.532C367.847 236.123 351.241 262.773 324.79 266.962L297.111 271.346C270.837 275.508 246.908 255.584 246.241 228.991L241.911 56.3067Z" fill="white"/>
<path d="M246.241 228.991L249.24 228.916L246.241 228.991ZM359.951 210.532L362.818 209.648L359.951 210.532ZM309.016 45.4434L306.149 46.3279L309.016 45.4434ZM241.911 56.3066L238.912 56.3818L241.911 56.3066ZM246.241 228.991L249.24 228.916L246.241 228.991ZM359.951 210.532L362.818 209.648L359.951 210.532ZM309.016 45.4435L306.149 46.328L309.016 45.4435ZM241.911 56.3067L238.912 56.3819L241.911 56.3067ZM309.016 45.4434L306.149 46.3279L309.016 45.4434ZM261.775 35.9762L283.909 32.4705L282.971 26.5444L260.836 30.0501L261.775 35.9762ZM306.149 46.3279L357.084 211.417L362.818 209.648L311.882 44.559L306.149 46.3279ZM324.32 263.999L296.641 268.383L297.58 274.309L325.259 269.925L324.32 263.999ZM249.24 228.916L244.91 56.2314L238.912 56.3818L243.242 229.066L249.24 228.916ZM261.775 35.9762L283.909 32.4705L282.971 26.5444L260.836 30.0501L261.775 35.9762ZM306.149 46.3279L357.084 211.416L362.818 209.648L311.882 44.559L306.149 46.3279ZM324.32 263.999L296.641 268.383L297.58 274.309L325.259 269.925L324.32 263.999ZM249.24 228.916L244.91 56.2314L238.912 56.3818L243.242 229.066L249.24 228.916ZM296.641 268.383C272.159 272.261 249.862 253.695 249.24 228.916L243.242 229.066C243.955 257.472 269.515 278.754 297.58 274.309L296.641 268.383ZM357.084 211.416C364.442 235.263 348.969 260.095 324.32 263.999L325.259 269.925C353.514 265.45 371.252 236.983 362.818 209.648L357.084 211.416ZM283.909 32.4705C293.738 30.9139 303.215 36.8194 306.149 46.3279L311.882 44.559C308.068 32.1979 295.747 24.5207 282.971 26.5444L283.909 32.4705ZM260.836 30.0501C247.96 32.0895 238.585 43.3492 238.912 56.3818L244.91 56.2314C244.659 46.2063 251.87 37.545 261.775 35.9762L260.836 30.0501ZM261.775 35.9763L283.909 32.4706L282.971 26.5445L260.836 30.0502L261.775 35.9763ZM306.149 46.328L357.084 211.417L362.818 209.648L311.882 44.559L306.149 46.328ZM324.32 263.999L296.641 268.383L297.58 274.309L325.259 269.926L324.32 263.999ZM249.24 228.916L244.91 56.2314L238.912 56.3819L243.242 229.066L249.24 228.916ZM296.641 268.383C272.159 272.261 249.862 253.696 249.24 228.916L243.242 229.066C243.955 257.472 269.515 278.755 297.58 274.309L296.641 268.383ZM357.084 211.417C364.442 235.263 348.969 260.096 324.32 263.999L325.259 269.926C353.514 265.45 371.252 236.983 362.818 209.648L357.084 211.417ZM283.909 32.4706C293.738 30.9139 303.215 36.8194 306.149 46.328L311.882 44.559C308.068 32.198 295.747 24.5208 282.971 26.5445L283.909 32.4706ZM260.836 30.0502C247.96 32.0896 238.585 43.3493 238.912 56.3819L244.91 56.2314C244.659 46.2064 251.87 37.5451 261.775 35.9763L260.836 30.0502ZM296.641 268.383C272.159 272.261 249.862 253.695 249.24 228.916L243.242 229.066C243.955 257.472 269.515 278.754 297.58 274.309L296.641 268.383ZM357.084 211.417C364.442 235.263 348.969 260.095 324.32 263.999L325.259 269.925C353.514 265.45 371.252 236.983 362.818 209.648L357.084 211.417ZM283.909 32.4705C293.738 30.9139 303.215 36.8194 306.149 46.3279L311.882 44.559C308.068 32.1979 295.747 24.5207 282.971 26.5444L283.909 32.4705ZM260.836 30.0501C247.96 32.0895 238.585 43.3492 238.912 56.3818L244.91 56.2314C244.659 46.2063 251.87 37.545 261.775 35.9762L260.836 30.0501Z" fill="black" mask="url(#path-15-inside-2_656_8246)"/>
<path d="M98.0002 192.5C93.5002 169.5 181.393 169.5 174.5 192.5C168.981 210.919 154.5 221.5 135.5 221.5C120 221.5 103.025 209.267 98.0002 192.5Z" fill="black"/>
<ellipse cx="87.5868" cy="160.804" rx="15.6979" ry="23.0564" transform="rotate(2.23705 87.5868 160.804)" fill="black"/>
<path d="M226.01 161.303C225.513 174.027 217.868 184.058 208.934 183.709C200 183.36 193.161 172.763 193.658 160.039C194.155 147.315 201.8 137.283 210.734 137.632C219.668 137.981 226.507 148.579 226.01 161.303Z" fill="black"/>
<path d="M104.395 141.882C96.764 138.789 84.4051 137.701 76.0818 148.156" stroke="white" stroke-width="23" stroke-linecap="round"/>
<path d="M225.997 145.773C219.306 139.429 206.637 132.658 192.874 138.098" stroke="white" stroke-width="23" stroke-linecap="round"/>
<path d="M102.254 151.481C93.7512 151.903 80.2921 155.473 72.1171 166.111" stroke="black" stroke-width="10" stroke-linecap="round"/>
<path d="M225.062 162.984C219.503 156.536 208.416 148.113 195 148.203" stroke="black" stroke-width="10" stroke-linecap="round"/>
<rect x="371" y="323" width="111" height="170" rx="55.5" fill="white"/>
</svg>
