<svg width="325" height="297" viewBox="0 0 325 297" fill="none" xmlns="http://www.w3.org/2000/svg">
<rect x="9.5" y="96.5" width="54" height="189" rx="13.5" fill="white" stroke="black" stroke-width="3"/>
<rect x="11" y="66" width="51" height="192" rx="15" fill="white"/>
<path d="M236.631 179.663L236.418 180.75L237.395 181.273C237.726 181.45 238.079 181.637 238.45 181.833C240.787 183.069 243.839 184.682 246.461 186.581C247.976 187.679 249.278 188.823 250.189 189.983C251.083 191.121 251.519 192.167 251.537 193.125L244.543 271.65L244.537 271.716V271.783C244.537 279.239 238.493 285.283 231.037 285.283H209.037C201.587 285.283 195.546 279.247 195.537 271.798L196.928 204.814L196.949 203.824L196.047 203.416C155.948 185.266 128.309 154.585 121.504 123.182C118.15 107.706 123.352 88.77 134.883 73.6601C146.39 58.5824 164.059 47.5 185.429 47.5C207.092 47.5 225.761 53.7467 237.916 64.777C250.01 75.7518 255.794 91.5771 251.571 111.184C248.418 125.824 245.565 138.655 243.159 149.474C240.233 162.637 237.969 172.821 236.631 179.663Z" fill="white" stroke="black" stroke-width="3"/>
<path d="M112.367 182.767H225.904C279.4 182.767 322.767 139.4 322.767 85.9038C322.767 39.1416 284.858 1.23329 238.096 1.23329H55C25.3055 1.23329 1.23329 25.3055 1.23329 55V71.6328C1.23329 133.01 50.9897 182.767 112.367 182.767Z" fill="white" stroke="black" stroke-width="2.46657"/>
<rect x="79.5" y="106.5" width="54" height="189" rx="13.5" fill="white" stroke="black" stroke-width="3"/>
<rect x="81" y="76" width="51" height="192" rx="15" fill="white"/>
<path d="M306.631 189.663L306.418 190.75L307.395 191.273C307.726 191.45 308.079 191.637 308.45 191.833C310.787 193.069 313.839 194.682 316.461 196.581C317.976 197.679 319.278 198.823 320.189 199.983C321.083 201.121 321.519 202.167 321.537 203.125L314.543 281.65L314.537 281.716V281.783C314.537 289.239 308.493 295.283 301.037 295.283H279.037C271.587 295.283 265.546 289.247 265.537 281.798L266.928 214.814L266.949 213.824L266.047 213.416C225.948 195.266 198.309 164.585 191.504 133.182C188.15 117.706 193.352 98.77 204.883 83.6601C216.39 68.5824 234.059 57.5 255.429 57.5C277.092 57.5 295.761 63.7467 307.916 74.777C320.01 85.7518 325.794 101.577 321.571 121.184C318.418 135.824 315.565 148.655 313.159 159.474C310.233 172.637 307.969 182.821 306.631 189.663Z" fill="white" stroke="black" stroke-width="3"/>
<rect x="204" y="40" width="118" height="112" rx="56" fill="white"/>
</svg>
