<svg width="313" height="264" viewBox="0 0 313 264" fill="none" xmlns="http://www.w3.org/2000/svg">
<rect x="96.0201" y="209.213" width="109.6" height="31.645" rx="11.9633" transform="rotate(6.24069 96.0201 209.213)" fill="white" stroke="black" stroke-width="2.31549"/>
<mask id="path-2-inside-1_537_7492" fill="white">
<path d="M121.403 55.3026C122.527 46.4728 116.939 38.1754 108.334 35.8985L91.6127 31.4739C83.0742 29.2145 74.1735 33.576 70.7269 41.7081L18.6925 164.484C10.6265 183.516 21.2906 205.279 41.2734 210.566L62.1837 216.099C82.032 221.351 101.965 207.926 104.559 187.559L121.403 55.3026Z"/>
<path d="M121.403 55.3026C122.527 46.4729 116.939 38.1754 108.334 35.8985L91.6127 31.4739C83.0742 29.2145 74.1735 33.576 70.7269 41.7081L18.6925 164.484C10.6265 183.516 21.2906 205.279 41.2734 210.566L62.1836 216.099C82.032 221.351 101.965 207.926 104.559 187.559L121.403 55.3026Z"/>
<path d="M121.403 55.3026C122.527 46.4729 116.939 38.1755 108.334 35.8985L91.6127 31.4739C83.0742 29.2146 74.1735 33.576 70.7269 41.7082L18.6925 164.484C10.6265 183.516 21.2906 205.279 41.2734 210.566L62.1836 216.099C82.032 221.351 101.965 207.926 104.559 187.559L121.403 55.3026Z"/>
</mask>
<path d="M121.403 55.3026C122.527 46.4728 116.939 38.1754 108.334 35.8985L91.6127 31.4739C83.0742 29.2145 74.1735 33.576 70.7269 41.7081L18.6925 164.484C10.6265 183.516 21.2906 205.279 41.2734 210.566L62.1837 216.099C82.032 221.351 101.965 207.926 104.559 187.559L121.403 55.3026Z" fill="white"/>
<path d="M121.403 55.3026C122.527 46.4729 116.939 38.1754 108.334 35.8985L91.6127 31.4739C83.0742 29.2145 74.1735 33.576 70.7269 41.7081L18.6925 164.484C10.6265 183.516 21.2906 205.279 41.2734 210.566L62.1836 216.099C82.032 221.351 101.965 207.926 104.559 187.559L121.403 55.3026Z" fill="white"/>
<path d="M121.403 55.3026C122.527 46.4729 116.939 38.1755 108.334 35.8985L91.6127 31.4739C83.0742 29.2146 74.1735 33.576 70.7269 41.7082L18.6925 164.484C10.6265 183.516 21.2906 205.279 41.2734 210.566L62.1836 216.099C82.032 221.351 101.965 207.926 104.559 187.559L121.403 55.3026Z" fill="white"/>
<path d="M121.403 55.3026C122.527 46.4728 116.939 38.1754 108.334 35.8985L91.6127 31.4739C83.0742 29.2145 74.1735 33.576 70.7269 41.7081L18.6925 164.484C10.6265 183.516 21.2906 205.279 41.2734 210.566L62.1837 216.099C82.032 221.351 101.965 207.926 104.559 187.559L121.403 55.3026Z" stroke="black" stroke-width="4.63097" mask="url(#path-2-inside-1_537_7492)"/>
<path d="M121.403 55.3026C122.527 46.4729 116.939 38.1754 108.334 35.8985L91.6127 31.4739C83.0742 29.2145 74.1735 33.576 70.7269 41.7081L18.6925 164.484C10.6265 183.516 21.2906 205.279 41.2734 210.566L62.1836 216.099C82.032 221.351 101.965 207.926 104.559 187.559L121.403 55.3026Z" stroke="black" stroke-width="4.63097" mask="url(#path-2-inside-1_537_7492)"/>
<path d="M121.403 55.3026C122.527 46.4729 116.939 38.1755 108.334 35.8985L91.6127 31.4739C83.0742 29.2146 74.1735 33.576 70.7269 41.7082L18.6925 164.484C10.6265 183.516 21.2906 205.279 41.2734 210.566L62.1836 216.099C82.032 221.351 101.965 207.926 104.559 187.559L121.403 55.3026Z" stroke="black" stroke-width="4.63097" mask="url(#path-2-inside-1_537_7492)"/>
<mask id="path-3-inside-2_537_7492" fill="white">
<path d="M71.0662 63.4539C78.4371 31.6423 108.316 10.2773 140.802 13.5893L181.873 17.7765C213.682 21.0195 238.377 46.9685 240.043 78.8991L244.761 169.376C246.832 209.086 212.998 241.286 173.44 237.252L107.279 230.507C68.4381 226.547 41.8817 189.408 50.6946 151.373L71.0662 63.4539Z"/>
</mask>
<path d="M71.0662 63.4539C78.4371 31.6423 108.316 10.2773 140.802 13.5893L181.873 17.7765C213.682 21.0195 238.377 46.9685 240.043 78.8991L244.761 169.376C246.832 209.086 212.998 241.286 173.44 237.252L107.279 230.507C68.4381 226.547 41.8817 189.408 50.6946 151.373L71.0662 63.4539Z" fill="white" stroke="black" stroke-width="4.63097" mask="url(#path-3-inside-2_537_7492)"/>
<mask id="path-4-inside-3_537_7492" fill="white">
<path d="M205.029 63.8218C205.71 54.9468 212.858 47.9479 221.745 47.4543L239.015 46.4952C247.834 46.0055 255.671 52.0734 257.406 60.7338L283.593 191.484C287.652 211.752 272.815 230.916 252.177 232.062L230.58 233.261C210.08 234.4 193.266 217.228 194.836 196.756L205.029 63.8218Z"/>
<path d="M205.029 63.8219C205.71 54.9468 212.858 47.9479 221.745 47.4543L239.015 46.4952C247.834 46.0055 255.671 52.0734 257.406 60.7338L283.593 191.484C287.652 211.752 272.815 230.916 252.177 232.062L230.58 233.261C210.08 234.4 193.266 217.228 194.836 196.756L205.029 63.8219Z"/>
<path d="M205.029 63.8219C205.71 54.9469 212.858 47.948 221.745 47.4544L239.015 46.4953C247.834 46.0055 255.671 52.0735 257.406 60.7339L283.593 191.484C287.652 211.752 272.815 230.916 252.177 232.062L230.58 233.261C210.08 234.4 193.266 217.228 194.836 196.756L205.029 63.8219Z"/>
</mask>
<path d="M205.029 63.8218C205.71 54.9468 212.858 47.9479 221.745 47.4543L239.015 46.4952C247.834 46.0055 255.671 52.0734 257.406 60.7338L283.593 191.484C287.652 211.752 272.815 230.916 252.177 232.062L230.58 233.261C210.08 234.4 193.266 217.228 194.836 196.756L205.029 63.8218Z" fill="white"/>
<path d="M205.029 63.8219C205.71 54.9468 212.858 47.9479 221.745 47.4543L239.015 46.4952C247.834 46.0055 255.671 52.0734 257.406 60.7338L283.593 191.484C287.652 211.752 272.815 230.916 252.177 232.062L230.58 233.261C210.08 234.4 193.266 217.228 194.836 196.756L205.029 63.8219Z" fill="white"/>
<path d="M205.029 63.8219C205.71 54.9469 212.858 47.948 221.745 47.4544L239.015 46.4953C247.834 46.0055 255.671 52.0735 257.406 60.7339L283.593 191.484C287.652 211.752 272.815 230.916 252.177 232.062L230.58 233.261C210.08 234.4 193.266 217.228 194.836 196.756L205.029 63.8219Z" fill="white"/>
<path d="M205.029 63.8218C205.71 54.9468 212.858 47.9479 221.745 47.4543L239.015 46.4952C247.834 46.0055 255.671 52.0734 257.406 60.7338L283.593 191.484C287.652 211.752 272.815 230.916 252.177 232.062L230.58 233.261C210.08 234.4 193.266 217.228 194.836 196.756L205.029 63.8218Z" stroke="black" stroke-width="4.63097" mask="url(#path-4-inside-3_537_7492)"/>
<path d="M205.029 63.8219C205.71 54.9468 212.858 47.9479 221.745 47.4543L239.015 46.4952C247.834 46.0055 255.671 52.0734 257.406 60.7338L283.593 191.484C287.652 211.752 272.815 230.916 252.177 232.062L230.58 233.261C210.08 234.4 193.266 217.228 194.836 196.756L205.029 63.8219Z" stroke="black" stroke-width="4.63097" mask="url(#path-4-inside-3_537_7492)"/>
<path d="M205.029 63.8219C205.71 54.9469 212.858 47.948 221.745 47.4544L239.015 46.4953C247.834 46.0055 255.671 52.0735 257.406 60.7339L283.593 191.484C287.652 211.752 272.815 230.916 252.177 232.062L230.58 233.261C210.08 234.4 193.266 217.228 194.836 196.756L205.029 63.8219Z" stroke="black" stroke-width="4.63097" mask="url(#path-4-inside-3_537_7492)"/>
<path d="M83.8659 157.132C82.2111 139.119 149.699 146 142.606 163.121C136.926 176.832 124.979 183.823 110.39 182.335C98.4883 181.122 86.4114 170.4 83.8659 157.132Z" fill="black"/>
<ellipse cx="80.0622" cy="124.39" rx="12.3493" ry="18.138" transform="rotate(6.24069 80.0622 124.39)" fill="black"/>
<ellipse cx="172.133" cy="134.458" rx="12.3493" ry="18.138" transform="rotate(6.24069 172.133 134.458)" fill="black"/>
</svg>
