<svg width="313" height="264" viewBox="0 0 313 264" fill="none" xmlns="http://www.w3.org/2000/svg">
<rect x="96.0201" y="209.213" width="109.6" height="31.645" rx="11.9633" transform="rotate(6.24069 96.0201 209.213)" fill="white" stroke="black" stroke-width="2.31549"/>
<mask id="path-2-inside-1_537_7510" fill="white">
<path d="M121.403 55.3027C122.527 46.473 116.939 38.1755 108.334 35.8986L91.6127 31.474C83.0742 29.2146 74.1735 33.5761 70.7269 41.7082L18.6925 164.484C10.6265 183.516 21.2906 205.279 41.2734 210.566L62.1837 216.099C82.032 221.351 101.965 207.926 104.559 187.559L121.403 55.3027Z"/>
<path d="M121.403 55.3027C122.527 46.473 116.939 38.1755 108.334 35.8986L91.6127 31.474C83.0742 29.2146 74.1735 33.5761 70.7269 41.7082L18.6925 164.484C10.6265 183.516 21.2906 205.279 41.2734 210.566L62.1836 216.099C82.032 221.351 101.965 207.926 104.559 187.559L121.403 55.3027Z"/>
<path d="M121.403 55.3028C122.527 46.473 116.939 38.1756 108.334 35.8987L91.6127 31.474C83.0742 29.2147 74.1735 33.5761 70.7269 41.7083L18.6925 164.484C10.6265 183.516 21.2906 205.279 41.2734 210.566L62.1836 216.099C82.032 221.352 101.965 207.926 104.559 187.559L121.403 55.3028Z"/>
</mask>
<path d="M121.403 55.3027C122.527 46.473 116.939 38.1755 108.334 35.8986L91.6127 31.474C83.0742 29.2146 74.1735 33.5761 70.7269 41.7082L18.6925 164.484C10.6265 183.516 21.2906 205.279 41.2734 210.566L62.1837 216.099C82.032 221.351 101.965 207.926 104.559 187.559L121.403 55.3027Z" fill="white"/>
<path d="M121.403 55.3027C122.527 46.473 116.939 38.1755 108.334 35.8986L91.6127 31.474C83.0742 29.2146 74.1735 33.5761 70.7269 41.7082L18.6925 164.484C10.6265 183.516 21.2906 205.279 41.2734 210.566L62.1836 216.099C82.032 221.351 101.965 207.926 104.559 187.559L121.403 55.3027Z" fill="white"/>
<path d="M121.403 55.3028C122.527 46.473 116.939 38.1756 108.334 35.8987L91.6127 31.474C83.0742 29.2147 74.1735 33.5761 70.7269 41.7083L18.6925 164.484C10.6265 183.516 21.2906 205.279 41.2734 210.566L62.1836 216.099C82.032 221.352 101.965 207.926 104.559 187.559L121.403 55.3028Z" fill="white"/>
<path d="M121.403 55.3027C122.527 46.473 116.939 38.1755 108.334 35.8986L91.6127 31.474C83.0742 29.2146 74.1735 33.5761 70.7269 41.7082L18.6925 164.484C10.6265 183.516 21.2906 205.279 41.2734 210.566L62.1837 216.099C82.032 221.351 101.965 207.926 104.559 187.559L121.403 55.3027Z" stroke="black" stroke-width="4.63097" mask="url(#path-2-inside-1_537_7510)"/>
<path d="M121.403 55.3027C122.527 46.473 116.939 38.1755 108.334 35.8986L91.6127 31.474C83.0742 29.2146 74.1735 33.5761 70.7269 41.7082L18.6925 164.484C10.6265 183.516 21.2906 205.279 41.2734 210.566L62.1836 216.099C82.032 221.351 101.965 207.926 104.559 187.559L121.403 55.3027Z" stroke="black" stroke-width="4.63097" mask="url(#path-2-inside-1_537_7510)"/>
<path d="M121.403 55.3028C122.527 46.473 116.939 38.1756 108.334 35.8987L91.6127 31.474C83.0742 29.2147 74.1735 33.5761 70.7269 41.7083L18.6925 164.484C10.6265 183.516 21.2906 205.279 41.2734 210.566L62.1836 216.099C82.032 221.352 101.965 207.926 104.559 187.559L121.403 55.3028Z" stroke="black" stroke-width="4.63097" mask="url(#path-2-inside-1_537_7510)"/>
<mask id="path-3-inside-2_537_7510" fill="white">
<path d="M71.0662 63.454C78.4371 31.6425 108.316 10.2774 140.802 13.5894L181.873 17.7767C213.682 21.0197 238.377 46.9686 240.043 78.8992L244.761 169.377C246.832 209.086 212.998 241.286 173.44 237.253L107.279 230.507C68.4381 226.547 41.8817 189.408 50.6946 151.373L71.0662 63.454Z"/>
</mask>
<path d="M71.0662 63.454C78.4371 31.6425 108.316 10.2774 140.802 13.5894L181.873 17.7767C213.682 21.0197 238.377 46.9686 240.043 78.8992L244.761 169.377C246.832 209.086 212.998 241.286 173.44 237.253L107.279 230.507C68.4381 226.547 41.8817 189.408 50.6946 151.373L71.0662 63.454Z" fill="white" stroke="black" stroke-width="4.63097" mask="url(#path-3-inside-2_537_7510)"/>
<mask id="path-4-inside-3_537_7510" fill="white">
<path d="M205.029 63.8217C205.71 54.9467 212.858 47.9478 221.745 47.4542L239.015 46.4951C247.834 46.0053 255.671 52.0733 257.406 60.7337L283.593 191.484C287.652 211.752 272.815 230.915 252.177 232.062L230.58 233.261C210.08 234.399 193.266 217.228 194.836 196.756L205.029 63.8217Z"/>
<path d="M205.029 63.8217C205.71 54.9467 212.858 47.9478 221.745 47.4542L239.015 46.4951C247.834 46.0053 255.671 52.0733 257.406 60.7337L283.593 191.484C287.652 211.752 272.815 230.915 252.177 232.062L230.58 233.261C210.08 234.399 193.266 217.228 194.836 196.756L205.029 63.8217Z"/>
<path d="M205.029 63.8218C205.71 54.9468 212.858 47.9478 221.745 47.4543L239.015 46.4952C247.834 46.0054 255.671 52.0734 257.406 60.7337L283.593 191.484C287.652 211.752 272.815 230.915 252.177 232.062L230.58 233.261C210.08 234.4 193.266 217.228 194.836 196.756L205.029 63.8218Z"/>
</mask>
<path d="M205.029 63.8217C205.71 54.9467 212.858 47.9478 221.745 47.4542L239.015 46.4951C247.834 46.0053 255.671 52.0733 257.406 60.7337L283.593 191.484C287.652 211.752 272.815 230.915 252.177 232.062L230.58 233.261C210.08 234.399 193.266 217.228 194.836 196.756L205.029 63.8217Z" fill="white"/>
<path d="M205.029 63.8217C205.71 54.9467 212.858 47.9478 221.745 47.4542L239.015 46.4951C247.834 46.0053 255.671 52.0733 257.406 60.7337L283.593 191.484C287.652 211.752 272.815 230.915 252.177 232.062L230.58 233.261C210.08 234.399 193.266 217.228 194.836 196.756L205.029 63.8217Z" fill="white"/>
<path d="M205.029 63.8218C205.71 54.9468 212.858 47.9478 221.745 47.4543L239.015 46.4952C247.834 46.0054 255.671 52.0734 257.406 60.7337L283.593 191.484C287.652 211.752 272.815 230.915 252.177 232.062L230.58 233.261C210.08 234.4 193.266 217.228 194.836 196.756L205.029 63.8218Z" fill="white"/>
<path d="M205.029 63.8217C205.71 54.9467 212.858 47.9478 221.745 47.4542L239.015 46.4951C247.834 46.0053 255.671 52.0733 257.406 60.7337L283.593 191.484C287.652 211.752 272.815 230.915 252.177 232.062L230.58 233.261C210.08 234.399 193.266 217.228 194.836 196.756L205.029 63.8217Z" stroke="black" stroke-width="4.63097" mask="url(#path-4-inside-3_537_7510)"/>
<path d="M205.029 63.8217C205.71 54.9467 212.858 47.9478 221.745 47.4542L239.015 46.4951C247.834 46.0053 255.671 52.0733 257.406 60.7337L283.593 191.484C287.652 211.752 272.815 230.915 252.177 232.062L230.58 233.261C210.08 234.399 193.266 217.228 194.836 196.756L205.029 63.8217Z" stroke="black" stroke-width="4.63097" mask="url(#path-4-inside-3_537_7510)"/>
<path d="M205.029 63.8218C205.71 54.9468 212.858 47.9478 221.745 47.4543L239.015 46.4952C247.834 46.0054 255.671 52.0734 257.406 60.7337L283.593 191.484C287.652 211.752 272.815 230.915 252.177 232.062L230.58 233.261C210.08 234.4 193.266 217.228 194.836 196.756L205.029 63.8218Z" stroke="black" stroke-width="4.63097" mask="url(#path-4-inside-3_537_7510)"/>
<path d="M83.8659 157.132C82.2111 139.119 149.699 146 142.606 163.121C136.926 176.832 124.979 183.823 110.39 182.335C98.4883 181.122 86.4114 170.4 83.8659 157.132Z" fill="black"/>
<path d="M91.8014 129.508C85.9433 126.529 75.5574 123.758 66.0001 127.749" stroke="black" stroke-width="7.71976" stroke-linecap="round"/>
<path d="M185.763 135.914C179.905 132.936 169.519 130.164 159.962 134.155" stroke="black" stroke-width="7.71976" stroke-linecap="round"/>
</svg>
