<svg width="329" height="245" viewBox="0 0 329 245" fill="none" xmlns="http://www.w3.org/2000/svg">
<path d="M47.9749 42.2774C66.3353 3.1828 131.53 8.70011 156.69 36.1946C181.85 63.6891 190.031 81.2997 212.725 71.0477C235.419 60.7956 264.36 63.5247 265.991 96.1419C267.622 128.759 241.087 167.328 198.882 178.737C156.677 190.147 156.69 230.53 100.833 222.363C70.3795 217.917 69.6891 184.971 73.9898 157.714C78.2906 130.456 26.6882 87.6128 47.9749 42.2774Z" fill="#EFEFEF"/>
<path d="M164.404 244.998C234.823 244.998 291.908 241.665 291.908 237.554C291.908 233.443 234.823 230.11 164.404 230.11C93.9865 230.11 36.9014 233.443 36.9014 237.554C36.9014 241.665 93.9865 244.998 164.404 244.998Z" fill="#F5F5F5"/>
<path d="M258.806 222.929C258.806 222.929 259.523 217.669 262.91 217.057C266.296 216.445 265.27 213.92 266.152 212.934C267.033 211.947 269.334 214.861 267.368 217.695C265.402 220.529 266.993 219.641 266.152 222.272C265.31 224.902 258.497 227.335 258.806 222.929Z" fill="#263238"/>
<path opacity="0.2" d="M258.806 222.929C258.806 222.929 259.523 217.669 262.91 217.057C266.296 216.445 265.27 213.92 266.152 212.934C267.033 211.947 269.334 214.861 267.368 217.695C265.402 220.529 266.993 219.641 266.152 222.272C265.31 224.902 258.497 227.335 258.806 222.929Z" fill="white"/>
<path d="M258.943 226.684C258.902 226.694 258.859 226.694 258.818 226.684C258.748 226.65 258.693 226.589 258.666 226.516C258.639 226.442 258.642 226.361 258.673 226.289C258.673 226.237 261.212 220.871 259.883 212.276C259.456 209.799 258.768 207.374 257.832 205.042C256.221 200.649 254.827 196.848 257.878 190.213C258.818 188.168 259.772 186.267 260.699 184.419C264.112 177.64 266.808 172.287 264.848 166.986C264.821 166.912 264.825 166.83 264.858 166.759C264.891 166.687 264.952 166.632 265.026 166.605C265.1 166.578 265.182 166.581 265.253 166.615C265.325 166.648 265.38 166.708 265.407 166.782C267.459 172.326 264.71 177.778 261.232 184.689C260.304 186.524 259.351 188.424 258.417 190.456C255.471 196.874 256.76 200.386 258.417 204.838C259.361 207.206 260.058 209.666 260.495 212.177C261.856 220.963 259.344 226.315 259.239 226.539C259.209 226.589 259.165 226.63 259.112 226.655C259.06 226.681 259.001 226.691 258.943 226.684Z" fill="#263238"/>
<path d="M260.894 225.33C260.894 225.33 263.083 222.042 259.927 220.338C256.77 218.635 256.132 220.01 254.179 218.787C252.226 217.563 250.747 214.617 250.418 216.505C250.089 218.392 252.338 219.47 251.542 220.338C250.747 221.207 256.849 226.816 260.894 225.33Z" fill="#263238"/>
<path d="M266.059 169.61C266.059 169.61 268.19 163.139 263.343 163.001C258.497 162.863 263.837 168.92 266.059 169.61Z" fill="#263238"/>
<path d="M261.849 174.595C261.849 174.595 260.403 168.676 256.963 169.945C253.524 171.215 258.443 174.7 261.849 174.595Z" fill="#263238"/>
<path d="M267.684 175.101C267.684 175.101 267.164 170.406 270.814 170.307C274.464 170.209 272.839 174.345 267.684 175.101Z" fill="#263238"/>
<path d="M265.257 184.689C265.257 184.689 270.156 180.322 271.912 183.571C273.668 186.819 268.223 187.497 265.257 184.689Z" fill="#263238"/>
<path d="M256.586 183.912C256.586 183.912 255.666 176.679 251.707 178.934C247.748 181.19 253.14 184.636 256.586 183.912Z" fill="#263238"/>
<path d="M253.101 194.297C253.101 194.297 256.021 186.971 250.596 187.793C245.171 188.615 249.274 192.521 253.101 194.297Z" fill="#263238"/>
<path d="M261.433 196.914C261.433 196.914 266.036 191.515 269.521 193.225C273.006 194.935 270.159 200.307 261.433 196.914Z" fill="#263238"/>
<path d="M257.274 208.876C257.274 208.876 253.368 200.209 249.896 203.128C246.423 206.048 252.112 210.434 257.274 208.876Z" fill="#263238"/>
<path d="M262.946 208.37C262.946 208.37 261.914 201.642 265.781 202.182C269.647 202.721 268.635 206.844 262.946 208.37Z" fill="#263238"/>
<g opacity="0.2">
<path opacity="0.2" d="M266.053 169.61C266.053 169.61 268.184 163.139 263.338 163.001C258.491 162.863 263.831 168.92 266.053 169.61Z" fill="white"/>
<path opacity="0.2" d="M261.844 174.595C261.844 174.595 260.398 168.676 256.958 169.945C253.519 171.215 258.438 174.7 261.844 174.595Z" fill="white"/>
<path opacity="0.2" d="M267.679 175.101C267.679 175.101 267.159 170.406 270.809 170.307C274.459 170.209 272.834 174.345 267.679 175.101Z" fill="white"/>
<path opacity="0.2" d="M265.252 184.689C265.252 184.689 270.151 180.322 271.907 183.571C273.663 186.819 268.218 187.497 265.252 184.689Z" fill="white"/>
<path opacity="0.2" d="M256.586 183.912C256.586 183.912 255.666 176.679 251.707 178.934C247.748 181.19 253.14 184.636 256.586 183.912Z" fill="white"/>
<path opacity="0.2" d="M253.1 194.297C253.1 194.297 256.02 186.971 250.595 187.793C245.17 188.615 249.273 192.521 253.1 194.297Z" fill="white"/>
<path opacity="0.2" d="M261.433 196.914C261.433 196.914 266.036 191.515 269.521 193.225C273.006 194.935 270.159 200.307 261.433 196.914Z" fill="white"/>
<path opacity="0.2" d="M257.269 208.876C257.269 208.876 253.363 200.209 249.891 203.128C246.419 206.048 252.107 210.434 257.269 208.876Z" fill="white"/>
<path opacity="0.2" d="M262.946 208.37C262.946 208.37 261.914 201.642 265.781 202.182C269.647 202.721 268.635 206.844 262.946 208.37Z" fill="white"/>
</g>
<path d="M263.961 178.554H263.875C263.799 178.531 263.736 178.479 263.698 178.409C263.698 178.37 261.83 174.832 260.449 174.003C260.383 173.961 260.336 173.896 260.316 173.82C260.297 173.744 260.307 173.664 260.344 173.595C260.385 173.528 260.45 173.48 260.527 173.46C260.603 173.441 260.683 173.451 260.752 173.49C262.067 174.273 263.599 176.975 264.079 177.857C265.866 176.672 267.416 175.164 268.65 173.411C268.671 173.379 268.699 173.351 268.731 173.329C268.764 173.308 268.8 173.293 268.838 173.285C268.876 173.277 268.915 173.277 268.954 173.285C268.992 173.292 269.028 173.307 269.061 173.329C269.093 173.351 269.121 173.378 269.142 173.411C269.164 173.443 269.179 173.479 269.187 173.518C269.194 173.556 269.194 173.595 269.187 173.633C269.179 173.671 269.164 173.708 269.143 173.74C267.811 175.665 266.096 177.295 264.106 178.527C264.06 178.548 264.011 178.557 263.961 178.554Z" fill="#263238"/>
<path d="M259.513 187.549H259.461C259.376 187.53 259.303 187.478 259.257 187.404C259.257 187.365 256.929 183.498 253.996 181.762C253.962 181.742 253.933 181.716 253.909 181.685C253.886 181.654 253.869 181.618 253.859 181.58C253.849 181.542 253.847 181.503 253.853 181.464C253.858 181.425 253.871 181.388 253.891 181.354C253.911 181.321 253.937 181.291 253.968 181.268C254 181.244 254.035 181.227 254.073 181.217C254.111 181.208 254.15 181.205 254.189 181.211C254.228 181.216 254.265 181.229 254.299 181.249C256.929 182.808 259.02 185.853 259.619 186.826C262.404 184.952 265.685 183.953 269.042 183.959C269.12 183.962 269.194 183.995 269.248 184.052C269.301 184.108 269.332 184.183 269.331 184.261C269.324 184.339 269.288 184.41 269.231 184.464C269.174 184.517 269.1 184.548 269.022 184.55C268.97 184.55 263.762 184.426 259.717 187.49C259.658 187.533 259.586 187.554 259.513 187.549Z" fill="#263238"/>
<path d="M256.688 199.446C256.621 199.444 256.556 199.421 256.504 199.38C253.571 197.026 251.322 191.179 251.243 190.93C251.227 190.893 251.218 190.853 251.218 190.813C251.217 190.773 251.225 190.733 251.241 190.696C251.256 190.659 251.279 190.626 251.308 190.598C251.337 190.57 251.371 190.548 251.408 190.534C251.446 190.52 251.486 190.513 251.526 190.515C251.566 190.517 251.605 190.526 251.641 190.544C251.678 190.561 251.71 190.585 251.736 190.616C251.763 190.646 251.783 190.681 251.795 190.719C251.795 190.778 253.998 196.447 256.734 198.788C257.792 198.196 263.066 195.355 267.137 195.27C267.216 195.27 267.292 195.301 267.349 195.356C267.405 195.411 267.438 195.487 267.44 195.566C267.44 195.605 267.434 195.643 267.42 195.679C267.405 195.716 267.384 195.749 267.358 195.777C267.331 195.805 267.299 195.827 267.263 195.843C267.227 195.859 267.189 195.867 267.15 195.868C262.856 195.947 256.911 199.367 256.852 199.406C256.802 199.435 256.745 199.448 256.688 199.446Z" fill="#263238"/>
<path d="M260.138 211.75C260.091 211.749 260.044 211.738 260.002 211.716C259.96 211.694 259.923 211.663 259.895 211.625C258.234 209.618 255.999 208.166 253.49 207.463C253.415 207.44 253.352 207.388 253.315 207.319C253.278 207.25 253.27 207.169 253.293 207.094C253.316 207.019 253.367 206.956 253.436 206.918C253.504 206.88 253.585 206.87 253.661 206.89C256.212 207.607 258.498 209.054 260.237 211.053C262.335 209.606 265.07 204.293 265.097 204.24C265.113 204.204 265.137 204.171 265.167 204.144C265.196 204.117 265.231 204.096 265.269 204.083C265.307 204.07 265.347 204.064 265.387 204.067C265.427 204.07 265.466 204.081 265.501 204.099C265.537 204.117 265.569 204.143 265.594 204.173C265.62 204.204 265.639 204.24 265.65 204.278C265.662 204.317 265.665 204.357 265.66 204.397C265.656 204.437 265.643 204.475 265.623 204.51C265.505 204.747 262.585 210.428 260.316 211.711C260.262 211.742 260.2 211.755 260.138 211.75Z" fill="#263238"/>
<path d="M258.901 224.29C258.901 224.29 261.032 220.903 263.439 220.416C265.846 219.93 266.878 217.168 267.766 218.831C268.654 220.495 266.207 226.019 258.901 224.29Z" fill="#263238"/>
<path d="M271.271 237.593H248.018L246.46 223.251H272.823L271.271 237.593Z" fill="#044ECF"/>
<path d="M273.37 225.967H245.921L245.566 222.929H273.718L273.37 225.967Z" fill="#044ECF"/>
<path opacity="0.3" d="M273.37 225.967H245.921L245.566 222.929H273.718L273.37 225.967Z" fill="white"/>
<path d="M150.153 231.971L141.052 186.642H137.566L128.458 231.971L121.771 236.068V237.278H156.624V236.068L150.153 231.971Z" fill="#044ECF"/>
<path opacity="0.2" d="M156.624 236.067H121.771V237.593H156.624V236.067Z" fill="black"/>
<path opacity="0.2" d="M141.053 186.642H137.568L128.354 231.839H150.042L141.053 186.642Z" fill="black"/>
<path opacity="0.8" d="M147.127 217.175L145.056 206.765H133.462L131.338 217.175H147.127Z" fill="white"/>
<path d="M219.992 77.4458H173.966L141.421 109.991V156.016L173.966 188.561H219.992L252.536 156.016V109.991L219.992 77.4458Z" fill="#044ECF"/>
<path d="M218.81 185.03H175.158L144.29 154.169V110.517L175.158 79.6558H218.81L249.671 110.517V154.169L218.81 185.03ZM175.973 183.058H217.988L247.699 153.354V111.339L217.988 81.6286H175.973L146.263 111.339V153.354L175.973 183.058Z" fill="white"/>
<path d="M236.003 126.622H157.958V138.064H236.003V126.622Z" fill="white"/>
<path d="M92.1521 85.1333C99.4383 87.2245 104.896 93.3336 110.946 96.8452C110.688 96.7911 110.422 96.7911 110.164 96.8452C112.972 95.7799 115.537 93.3468 117.93 91.3674C120.561 89.1118 123.316 86.5471 125.861 84.1337C126.019 83.9562 126.249 83.8378 126.841 84.0811C127.761 84.3813 128.608 84.8704 129.328 85.517C130.049 86.1636 130.626 86.9535 131.023 87.836C131.437 88.7435 130.97 88.829 130.543 89.4472L129.583 90.6111C126.351 94.5549 122.77 98.1996 118.884 101.501C116.878 103.092 114.938 104.625 112.308 105.388C110.558 105.999 107.974 105.388 106.389 104.572C103.592 103.081 100.898 101.403 98.327 99.548C95.5387 97.7527 92.7834 95.655 89.7386 94.754C83.1955 93.0311 85.4971 83.5747 92.1192 85.0872L92.1521 85.1333Z" fill="#263238"/>
<path opacity="0.2" d="M92.1521 85.1333C99.4383 87.2245 104.896 93.3336 110.946 96.8452C110.688 96.7911 110.422 96.7911 110.164 96.8452C112.972 95.7799 115.537 93.3468 117.93 91.3674C120.561 89.1118 123.316 86.5471 125.861 84.1337C126.019 83.9562 126.249 83.8378 126.841 84.0811C127.761 84.3813 128.608 84.8704 129.328 85.517C130.049 86.1636 130.626 86.9535 131.023 87.836C131.437 88.7435 130.97 88.829 130.543 89.4472L129.583 90.6111C126.351 94.5549 122.77 98.1996 118.884 101.501C116.878 103.092 114.938 104.625 112.308 105.388C110.558 105.999 107.974 105.388 106.389 104.572C103.592 103.081 100.898 101.403 98.327 99.548C95.5387 97.7527 92.7834 95.655 89.7386 94.754C83.1955 93.0311 85.4971 83.5747 92.1192 85.0872L92.1521 85.1333Z" fill="white"/>
<path opacity="0.2" d="M102.318 102.252C100.924 101.351 99.6285 100.463 98.3725 99.6214L96.9258 98.6547C96.9335 97.2613 97.1552 95.8773 97.5834 94.5513C99.913 96.5727 101.566 99.2607 102.318 102.252Z" fill="black"/>
<path d="M106.827 236.134C106.827 236.134 98.8499 233.786 98.2777 230.643C98.2677 230.568 98.2422 230.496 98.203 230.432C98.1638 230.367 98.1116 230.312 98.0498 230.269C97.988 230.225 97.9179 230.195 97.844 230.181C97.77 230.166 97.6938 230.166 97.6201 230.183L91.8266 231.156C91.6911 231.18 91.5647 231.241 91.4606 231.331C91.3565 231.422 91.2785 231.538 91.2348 231.669L89.4658 237.304L91.1098 237.357L91.7148 236.548L92.3724 237.396C101.263 237.679 105.11 237.699 106.886 237.199C107.195 236.423 106.827 236.134 106.827 236.134Z" fill="black"/>
<path d="M99.3025 179.599C98.1977 196.007 98.8553 230.663 98.8553 230.663L90.9641 232.55C90.9641 232.55 86.2819 206.976 85.7032 189.233C85.6506 187.572 85.6265 185.908 85.6309 184.242C84.0788 174.483 81.9622 164.822 79.2916 155.308C77.3582 148.245 75.655 142.629 74.7344 137.256L97.7506 129.779C99.0132 133.81 101.229 151.119 99.3025 179.599Z" fill="#263238"/>
<path opacity="0.4" d="M85.6841 189.233C85.6315 187.572 85.6074 185.908 85.6118 184.242C84.0597 174.483 81.943 164.822 79.2725 155.307C81.7516 148.245 84.9081 142.944 88.3145 142.326C88.3145 142.339 94.3645 173.03 85.6841 189.233Z" fill="black"/>
<path d="M98.4868 132.481C98.5352 130.655 98.3941 128.828 98.0659 127.03C98.0199 126.464 71.4658 127.411 69.2694 127.688C66.5206 128.003 69.8349 140.419 72.3338 144.535C91.6148 144.299 98.1383 135.842 98.4868 132.481Z" fill="#263238"/>
<path d="M80.5077 236.134C80.5077 236.134 72.531 233.786 71.9589 230.643C71.9488 230.568 71.9233 230.496 71.8841 230.432C71.8449 230.367 71.7927 230.312 71.7309 230.269C71.6691 230.225 71.5991 230.195 71.5251 230.181C71.4512 230.166 71.3749 230.166 71.3012 230.183L65.5077 231.156C65.3729 231.18 65.2472 231.241 65.1441 231.331C65.041 231.422 64.9644 231.538 64.9225 231.669L63.1338 237.304L64.7712 237.357L65.3762 236.548L66.0338 237.396C74.9247 237.679 78.7716 237.699 80.5472 237.199C80.8891 236.423 80.5077 236.134 80.5077 236.134Z" fill="black"/>
<path d="M68.2451 183.867C69.2381 159.897 68.2977 144.871 68.6265 133.612L90.8799 132.876C91.3468 137.071 90.0974 154.472 82.5941 182.019C78.2605 197.88 72.513 230.82 72.513 230.82L64.3653 231.878C64.3653 231.878 64.3192 202.871 68.2451 183.867Z" fill="#263238"/>
<path d="M68.9845 87.3959C75.2821 85.8605 81.7213 84.979 88.1998 84.7654C90.8688 84.7054 93.4654 85.6368 95.4877 87.3797C97.51 89.1227 98.8144 91.5534 99.1489 94.2021C100.385 104.066 98.2217 107.538 98.5308 122.861C99.2067 126.812 99.5433 130.814 99.5369 134.822C99.0371 137.236 93.7697 139.945 93.7697 139.945L90.8762 132.856L88.2064 139.945C88.2064 139.945 69.7934 139.077 67.7482 137.361C67.7482 137.361 68.7281 121.683 67.6365 115.416C65.9859 109.294 66.045 104.52 63.7566 96.4051C63.4982 95.4701 63.429 94.493 63.5529 93.531C63.6768 92.569 63.9914 91.6413 64.4783 90.8024C64.9651 89.9634 65.6144 89.23 66.3882 88.6451C67.1619 88.0601 68.0446 87.6355 68.9845 87.3959Z" fill="#263238"/>
<path opacity="0.2" d="M99.5344 134.842C99.0346 137.255 93.7738 139.965 93.7738 139.965L90.8803 132.876L88.2038 139.965C88.2038 139.965 69.7909 139.097 67.7457 137.38C67.7457 137.38 68.7256 121.703 67.6405 115.436C66.9647 112.809 66.4378 110.146 66.0623 107.459C65.8058 105.894 65.5493 104.263 65.2008 102.494C64.8523 100.725 64.3854 98.6736 63.7541 96.4246C63.4942 95.4862 63.4246 94.5052 63.5496 93.5395C63.6746 92.5738 63.9915 91.6429 64.4818 90.8015C64.972 89.9602 65.6256 89.2254 66.4041 88.6405C67.1827 88.0556 68.0703 87.6323 69.0149 87.3957C75.3147 85.8603 81.7561 84.9788 88.2367 84.7653C90.9047 84.7069 93.4996 85.639 95.5205 87.3818C97.5414 89.1246 98.8449 91.5544 99.1793 94.2019C100.422 104.066 98.2521 107.538 98.5677 122.86C99.2296 126.82 99.553 130.828 99.5344 134.842Z" fill="white"/>
<path d="M67.1895 130.686L72.0624 133.402L67.3013 138.097C67.3013 138.097 63.1847 135.105 64.421 132.659L67.1895 130.686Z" fill="#EBB376"/>
<path d="M73.6938 138.958L71.721 140.326C71.3462 140.591 70.8893 140.713 70.4324 140.671C69.9755 140.629 69.5487 140.425 69.2287 140.096L67.2559 138.123L72.0169 133.421L74.095 136.256C74.2468 136.459 74.3568 136.691 74.4189 136.937C74.4809 137.183 74.4936 137.439 74.4563 137.69C74.419 137.942 74.3325 138.183 74.2016 138.401C74.0708 138.618 73.8982 138.808 73.6938 138.958Z" fill="#EBB376"/>
<path opacity="0.2" d="M66.0587 107.46C65.8023 105.895 65.5458 104.264 65.1973 102.495C66.8479 99.9894 68.4853 97.8193 68.4853 97.8193C68.4853 97.8193 69.0508 103.744 66.0587 107.46Z" fill="black"/>
<path d="M72.1561 96.7929C67.2898 102.179 62.0684 107.525 57.8992 113.443C57.8269 113.575 57.7151 113.739 57.6888 113.799L57.6493 113.864C57.6555 113.802 57.6687 113.74 57.6888 113.68C57.7486 113.466 57.7642 113.243 57.7348 113.023C57.7348 112.957 57.7348 112.983 57.7348 113.062C58.0362 114.125 58.4785 115.142 59.05 116.087C61.0051 119.432 63.1548 122.66 65.488 125.754C66.2837 126.839 67.7896 128.917 68.5985 129.969C68.7629 130.153 68.8747 130.39 68.559 130.975C68.1564 131.855 67.5757 132.642 66.8536 133.286C66.1314 133.93 65.2835 134.417 64.3635 134.717C63.7059 134.921 63.4889 134.77 63.3179 134.566L62.7655 134.007L61.6739 132.882C57.6691 128.516 47.463 117.672 49.0939 111.49C49.4391 110.298 49.9552 109.162 50.6261 108.117C54.769 101.587 59.8326 95.8591 64.8435 90.0458C69.4468 85.2124 76.5949 91.6899 72.1956 96.76L72.1561 96.7929Z" fill="#263238"/>
<path opacity="0.9" d="M73.0894 88.12L81.4673 98.9639L89.2468 111.518L92.2389 98.5101L89.8518 89.6653L85.7812 84.8911L78.4884 86.0222L71.9912 87.5741L73.0894 88.12Z" fill="white"/>
<path opacity="0.2" d="M72.1561 96.7929C67.2898 102.179 62.0684 107.525 57.8992 113.443C57.8269 113.575 57.7151 113.739 57.6888 113.799L57.6493 113.864C57.6555 113.802 57.6687 113.74 57.6888 113.68C57.7486 113.466 57.7642 113.243 57.7348 113.023C57.7348 112.957 57.7348 112.983 57.7348 113.062C58.0362 114.125 58.4785 115.142 59.05 116.087C61.0051 119.432 63.1548 122.66 65.488 125.754C66.2837 126.839 67.7896 128.917 68.5985 129.969C68.7629 130.153 68.8747 130.39 68.559 130.975C68.1564 131.855 67.5757 132.642 66.8536 133.286C66.1314 133.93 65.2835 134.417 64.3635 134.717C63.7059 134.921 63.4889 134.77 63.3179 134.566L62.7655 134.007L61.6739 132.882C57.6691 128.516 47.463 117.672 49.0939 111.49C49.4391 110.298 49.9552 109.162 50.6261 108.117C54.769 101.587 59.8326 95.8591 64.8435 90.0458C69.4468 85.2124 76.5949 91.6899 72.1956 96.76L72.1561 96.7929Z" fill="white"/>
<path d="M80.8887 90.1844L84.4858 92.1046L86.6361 107.618L89.2666 111.517L90.3056 108.308C90.3056 108.308 87.1951 96.4317 85.801 91.6575L86.623 89.3164L83.3876 88.1919L80.8887 90.1844Z" fill="#044ECF"/>
<path d="M71.6827 86.8047C71.6827 86.8047 80.4355 92.0655 89.0961 110.932C89.0961 110.932 92.3841 91.2435 85.8081 84.924C85.8081 84.924 89.7537 84.4373 94.4753 89.3496L90.99 92.1247L96.3824 96.4649L89.6222 113.083C89.6222 113.083 81.4547 103.436 73.4846 98.9967L76.2465 94.7289L68.6709 90.5662C69.3293 89.071 70.3676 87.7741 71.6827 86.8047Z" fill="#263238"/>
<path d="M74.2019 75.0664C74.7866 78.8243 74.542 82.6647 73.4851 86.318C73.4464 86.4569 73.4508 86.6042 73.4978 86.7404C73.5448 86.8767 73.6321 86.9954 73.7482 87.0809C76.5639 88.933 79.9618 89.6865 83.2966 89.1983C87.3672 88.7315 86.9726 87.4886 85.8218 86.1865C85.6584 86.0021 85.4563 85.8562 85.23 85.7591C82.2378 84.4439 81.8499 82.2738 82.4549 80.8468L74.2019 75.0664Z" fill="#EBB376"/>
<path opacity="0.2" d="M74.1992 75.0664L82.4522 80.8468C82.2616 81.3035 82.1813 81.7988 82.2179 82.2923C82.2545 82.7859 82.4068 83.2639 82.6626 83.6876C81.1111 83.9343 79.5237 83.5867 78.2172 82.7144C76.1063 81.34 75.2119 79.5118 74.3899 76.8748C74.3505 76.283 74.311 75.7043 74.1992 75.0664Z" fill="black"/>
<path d="M73.7127 85.4371L83.3663 88.1925C83.5209 86.9919 83.5209 85.7763 83.3663 84.5757L85.7797 84.8913C86.4285 85.5607 86.9115 86.3727 87.1901 87.2622C87.4688 88.1518 87.5353 89.0942 87.3843 90.0141L83.8332 89.1329L80.8871 91.6581C77.37 91.0911 74.1359 89.3863 71.6807 86.805L73.7127 85.4371Z" fill="#044ECF"/>
<path opacity="0.7" d="M73.7127 85.4371L83.3663 88.1925C83.5209 86.9919 83.5209 85.7763 83.3663 84.5757L85.7797 84.8913C86.4285 85.5607 86.9115 86.3727 87.1901 87.2622C87.4688 88.1518 87.5353 89.0942 87.3843 90.0141L83.8332 89.1329L80.8871 91.6581C77.37 91.0911 74.1359 89.3863 71.6807 86.805L73.7127 85.4371Z" fill="white"/>
<path d="M84.4155 64.5053C85.7965 65.9389 84.4155 67.9774 84.5997 69.457C84.7838 70.9367 85.1389 72.8634 83.1003 70.9367C81.0618 69.0099 82.2717 62.5325 84.4155 64.5053Z" fill="#263238"/>
<path d="M71.5513 71.8763C72.518 76.7886 71.913 77.6763 74.7604 79.8662C79.0415 83.1542 85.2821 83.0819 85.532 77.9394C85.7293 73.3361 85.1046 65.0569 79.9884 63.7746C78.8546 63.4926 77.6679 63.5027 76.5391 63.8039C75.4103 64.105 74.3763 64.6874 73.5336 65.4965C72.6909 66.3057 72.0671 67.3153 71.7204 68.431C71.3738 69.5467 71.3156 70.732 71.5513 71.8763Z" fill="#EBB376"/>
<path d="M72.5033 75.1639C74.8313 76.3673 75.3442 73.1911 75.1732 72.9346C74.4301 71.9088 74.4038 71.0013 75.0812 68.9101C75.7585 66.8189 71.0171 63.8597 68.5972 65.8062C67.3477 66.8123 67.6699 69.1271 68.3275 71.1722C69.314 74.263 70.6226 74.1907 72.5033 75.1639Z" fill="#263238"/>
<path d="M69.7074 75.4866C70.2843 76.5001 71.2244 77.2569 72.3378 77.6041C73.7451 78.0052 74.3106 76.6045 73.7977 75.1578C73.344 73.8426 72.0682 72.0802 70.7135 72.3235C69.3589 72.5668 68.984 74.1977 69.7074 75.4866Z" fill="#EBB376"/>
<path d="M77.6023 71.5807C77.6746 72.0016 77.8719 72.0082 78.1481 71.9621C78.4243 71.9161 78.6742 71.8175 78.6018 71.3966C78.5295 70.9757 78.2467 70.6798 77.9442 70.739C77.6417 70.7982 77.5431 71.1598 77.6023 71.5807Z" fill="#263238"/>
<path d="M82.8622 71.2123C82.9345 71.6332 83.1318 71.6463 83.408 71.6003C83.6842 71.5543 83.9275 71.4556 83.8552 71.0348C83.7828 70.6139 83.5001 70.3114 83.2304 70.3772C82.9608 70.4429 82.757 70.7914 82.8622 71.2123Z" fill="#263238"/>
<path d="M82.0059 71.1338C82.5008 72.0929 83.1272 72.9782 83.8669 73.7642C83.6623 73.9495 83.42 74.0884 83.1566 74.1713C82.8933 74.2541 82.6151 74.279 82.3412 74.2443L82.0059 71.1338Z" fill="#D58745"/>
<path d="M76.3469 69.3384C76.3109 69.3186 76.2813 69.289 76.2615 69.253C76.2438 69.2251 76.232 69.194 76.2267 69.1614C76.2215 69.1289 76.2229 69.0956 76.2309 69.0636C76.2389 69.0317 76.2533 69.0017 76.2733 68.9754C76.2932 68.9492 76.3183 68.9273 76.3469 68.911C76.6836 68.6953 77.0669 68.5631 77.4649 68.5254C77.8629 68.4876 78.2642 68.5454 78.6354 68.694C78.6956 68.7228 78.7419 68.7743 78.7641 68.8372C78.7863 68.9001 78.7826 68.9692 78.7538 69.0294C78.725 69.0895 78.6735 69.1358 78.6106 69.158C78.5477 69.1802 78.4786 69.1765 78.4184 69.1477C78.1221 69.0348 77.8035 68.9932 77.4881 69.0263C77.1728 69.0594 76.8697 69.1664 76.6034 69.3384C76.5644 69.361 76.5202 69.3728 76.4752 69.3728C76.4302 69.3728 76.3859 69.361 76.3469 69.3384Z" fill="#263238"/>
<path d="M84.7079 68.3918C84.6794 68.4213 84.6441 68.4433 84.6051 68.4559C84.5661 68.4685 84.5247 68.4714 84.4843 68.4642C84.1772 68.3958 83.8581 68.402 83.5538 68.4821C83.2495 68.5621 82.9688 68.7138 82.7351 68.9245C82.7124 68.9478 82.6853 68.9663 82.6554 68.9789C82.6255 68.9915 82.5933 68.998 82.5608 68.998C82.5283 68.998 82.4962 68.9915 82.4662 68.9789C82.4363 68.9663 82.4092 68.9478 82.3865 68.9245C82.3631 68.9013 82.3445 68.8736 82.3318 68.8431C82.319 68.8127 82.3125 68.78 82.3125 68.7469C82.3125 68.7139 82.319 68.6812 82.3318 68.6508C82.3445 68.6203 82.3631 68.5926 82.3865 68.5694C82.6776 68.3003 83.029 68.1049 83.4111 67.9997C83.7933 67.8944 84.1951 67.8823 84.5829 67.9644C84.6489 67.9772 84.7072 68.0153 84.7454 68.0707C84.7835 68.126 84.7984 68.1941 84.7868 68.2603C84.7731 68.3106 84.7458 68.3561 84.7079 68.3918Z" fill="#263238"/>
<path d="M83.521 77.3017C83.4844 77.3017 83.4482 77.2935 83.4151 77.2775C83.3821 77.2616 83.3531 77.2384 83.3303 77.2096C83.2843 77.1505 82.1729 75.7958 79.4439 76.552C79.3802 76.5681 79.3128 76.5585 79.2562 76.5253C79.1996 76.492 79.1584 76.4379 79.1414 76.3745C79.1324 76.3434 79.1297 76.3108 79.1335 76.2787C79.1373 76.2466 79.1474 76.2155 79.1633 76.1873C79.1793 76.1592 79.2006 76.1345 79.2262 76.1147C79.2518 76.0948 79.2811 76.0803 79.3123 76.072C82.3768 75.2171 83.6657 76.8348 83.7183 76.9006C83.7389 76.9262 83.754 76.9557 83.7628 76.9874C83.7717 77.019 83.774 77.0521 83.7697 77.0847C83.7654 77.1172 83.7546 77.1486 83.7378 77.1769C83.7211 77.2051 83.6988 77.2297 83.6723 77.2491C83.6288 77.2823 83.5758 77.3008 83.521 77.3017Z" fill="#263238"/>
<path d="M76.7003 70.2265C77.2396 69.7881 77.8944 69.5156 78.5854 69.442C79.2765 69.3685 79.974 69.4971 80.5934 69.8122C81.251 70.1607 80.7775 73.5211 78.6206 73.4158C76.4636 73.3106 76.2861 70.6868 76.7003 70.2265Z" fill="#263238"/>
<path d="M85.257 68.983C84.765 68.6917 84.1846 68.5872 83.6219 68.6886C83.0592 68.7901 82.5518 69.0906 82.1925 69.5354C81.8308 70.022 83.1658 73.1127 84.7572 72.5012C86.3486 71.8896 85.737 69.3183 85.257 68.983Z" fill="#263238"/>
<path d="M80.4226 70.6076C80.3891 70.6074 80.3561 70.6002 80.3256 70.5867C80.295 70.5731 80.2676 70.5534 80.245 70.5287C80.2 70.4832 80.1748 70.4217 80.1748 70.3577C80.1748 70.2937 80.2 70.2323 80.245 70.1868C80.5417 69.8593 80.9491 69.6533 81.3886 69.6084C81.8281 69.5635 82.2688 69.6828 82.6255 69.9434C82.6663 69.9879 82.6897 70.0457 82.6912 70.106C82.6927 70.1663 82.6724 70.2252 82.6339 70.2717C82.5954 70.3182 82.5414 70.3492 82.4819 70.3589C82.4223 70.3687 82.3612 70.3566 82.3099 70.3249C81.5142 69.6672 80.6264 70.5024 80.587 70.5353C80.5438 70.5801 80.4847 70.606 80.4226 70.6076Z" fill="#263238"/>
<path d="M72.3387 71.6793C72.2799 71.6785 72.2232 71.6569 72.1787 71.6184C72.1342 71.5799 72.1047 71.5269 72.0954 71.4688C72.086 71.4052 72.1021 71.3404 72.1403 71.2887C72.1785 71.2369 72.2357 71.2024 72.2993 71.1926L76.8499 70.4758C76.9143 70.4663 76.9799 70.4823 77.0327 70.5203C77.0855 70.5584 77.1214 70.6156 77.1327 70.6797C77.1422 70.7441 77.1263 70.8097 77.0882 70.8625C77.0501 70.9153 76.9929 70.9512 76.9288 70.9625L72.3979 71.6793H72.3387Z" fill="#263238"/>
<path d="M83.8685 65.9054C83.8685 65.9054 84.5261 63.1763 83.4805 61.5454C82.4349 59.9146 74.7015 59.4674 71.1241 62.203C67.5467 64.9387 68.783 68.3845 69.1513 68.3188C70.3352 68.4868 71.5078 68.7262 72.6629 69.0356C72.6629 69.0356 74.1622 65.7804 75.2012 65.1294C76.2403 64.4783 79.2324 65.7147 80.3371 66.175C81.4419 66.6353 81.9022 65.0044 81.9022 65.0044C82.5801 65.2532 83.2375 65.5544 83.8685 65.9054Z" fill="#263238"/>
<path d="M130.211 87.1854L135.399 85.1271L131.289 79.8662C131.289 79.8662 126.818 82.2994 127.732 84.8837L130.211 87.1854Z" fill="#EBB376"/>
<path d="M137.739 79.8279L135.99 78.2562C135.652 77.9447 135.215 77.7637 134.755 77.7456C134.296 77.7276 133.846 77.8736 133.484 78.1576L131.288 79.8805L135.398 85.1413L137.831 82.603C138.011 82.4167 138.152 82.1961 138.245 81.9544C138.338 81.7127 138.381 81.4548 138.373 81.1959C138.364 80.9371 138.304 80.6826 138.195 80.4476C138.086 80.2126 137.931 80.0018 137.739 79.8279Z" fill="#EBB376"/>
<path d="M126.315 84.2729L127.276 83.4443L131.346 87.5018L130.202 88.817C130.202 88.817 126.822 86.4759 126.315 84.2729Z" fill="#044ECF"/>
<path opacity="0.7" d="M126.315 84.2729L127.276 83.4443L131.346 87.5018L130.202 88.817C130.202 88.817 126.822 86.4759 126.315 84.2729Z" fill="white"/>
<path d="M134.642 56.5615H132.413V94.5251H134.642V56.5615Z" fill="#263238"/>
<path d="M150.639 52.572C152.872 43.1095 147.012 33.6282 137.549 31.3948C128.087 29.1615 118.605 35.0218 116.372 44.4843C114.139 53.9468 119.999 63.4282 129.461 65.6615C138.924 67.8949 148.405 62.0345 150.639 52.572Z" fill="#044ECF"/>
<path d="M148.222 43.8027H118.794V53.2657H148.222V43.8027Z" fill="white"/>
<path d="M121.247 51.0435L121.74 49.9519C122.346 50.3747 123.066 50.604 123.805 50.6095C124.667 50.6095 125.015 50.3202 125.015 49.9519C125.015 48.7748 121.372 49.5836 121.372 47.2557C121.372 46.197 122.233 45.2829 124.002 45.2829C124.764 45.2694 125.516 45.4601 126.179 45.8353L125.732 46.9335C125.204 46.6254 124.607 46.4579 123.996 46.4469C123.134 46.4469 122.806 46.7691 122.806 47.1571C122.806 48.3145 126.442 47.5188 126.442 49.7875C126.442 50.8331 125.581 51.7274 123.812 51.7274C122.907 51.7639 122.013 51.5254 121.247 51.0435Z" fill="#044ECF"/>
<path d="M128.653 46.5855H126.68V45.3755H132.131V46.5592H130.158V51.6359H128.705L128.653 46.5855Z" fill="#044ECF"/>
<path d="M132.397 48.5314C132.358 47.8451 132.525 47.1628 132.878 46.5728C133.231 45.9828 133.752 45.5123 134.375 45.2222C134.998 44.932 135.694 44.8356 136.373 44.9455C137.051 45.0553 137.681 45.3664 138.181 45.8383C138.681 46.3103 139.027 46.9214 139.176 47.5925C139.324 48.2636 139.268 48.9639 139.014 49.6026C138.76 50.2413 138.32 50.7891 137.751 51.1749C137.182 51.5608 136.511 51.767 135.823 51.7668C135.383 51.7918 134.942 51.7267 134.528 51.5755C134.113 51.4242 133.734 51.19 133.413 50.8871C133.093 50.5842 132.837 50.2191 132.662 49.814C132.488 49.4089 132.397 48.9725 132.397 48.5314ZM137.783 48.5314C137.783 48.1412 137.667 47.7597 137.451 47.4353C137.234 47.1109 136.926 46.858 136.565 46.7087C136.205 46.5594 135.808 46.5203 135.425 46.5964C135.043 46.6726 134.691 46.8605 134.415 47.1364C134.139 47.4123 133.951 47.7638 133.875 48.1465C133.799 48.5292 133.838 48.9258 133.988 49.2863C134.137 49.6468 134.39 49.9549 134.714 50.1717C135.039 50.3885 135.42 50.5042 135.81 50.5042C136.072 50.5134 136.332 50.4686 136.576 50.3727C136.819 50.2768 137.041 50.1318 137.226 49.9468C137.411 49.7617 137.556 49.5406 137.652 49.297C137.748 49.0535 137.792 48.7929 137.783 48.5314Z" fill="#044ECF"/>
<path d="M145.775 47.6771C145.775 49.0712 144.729 49.9393 143.052 49.9393H141.796V51.6622H140.343V45.3755H143.052C144.729 45.3755 145.775 46.2698 145.775 47.6771ZM144.308 47.6771C144.308 47.0195 143.861 46.5855 142.993 46.5855H141.816V48.7556H142.993C143.861 48.7556 144.308 48.3544 144.308 47.6771Z" fill="#044ECF"/>
<path d="M133.497 64.715C130.296 64.715 127.167 63.7658 124.506 61.9876C121.845 60.2093 119.77 57.6817 118.545 54.7246C117.32 51.7674 117 48.5134 117.624 45.3741C118.249 42.2347 119.79 39.3511 122.054 37.0878C124.317 34.8244 127.201 33.2831 130.34 32.6586C133.479 32.0342 136.733 32.3547 139.69 33.5796C142.648 34.8045 145.175 36.8788 146.953 39.5402C148.732 42.2016 149.681 45.3305 149.681 48.5313C149.676 52.8219 147.969 56.9353 144.935 59.9692C141.901 63.003 137.788 64.7098 133.497 64.715ZM133.497 34.3205C130.687 34.3205 127.939 35.1539 125.602 36.7154C123.265 38.2769 121.444 40.4964 120.368 43.0931C119.292 45.6898 119.011 48.5471 119.559 51.3037C120.108 54.0604 121.461 56.5925 123.449 58.5799C125.436 60.5674 127.968 61.9208 130.725 62.4691C133.481 63.0175 136.339 62.736 138.935 61.6604C141.532 60.5849 143.752 58.7634 145.313 56.4265C146.875 54.0895 147.708 51.342 147.708 48.5313C147.703 44.764 146.204 41.1524 143.54 38.4885C140.876 35.8246 137.265 34.3257 133.497 34.3205Z" fill="white"/>
</svg>
