<svg width="276" height="257" viewBox="0 0 276 257" fill="none" xmlns="http://www.w3.org/2000/svg">
<path d="M132.233 256.901C205.263 256.901 264.466 253.444 264.466 249.181C264.466 244.917 205.263 241.46 132.233 241.46C59.2027 241.46 0 244.917 0 249.181C0 253.444 59.2027 256.901 132.233 256.901Z" fill="#F5F5F5"/>
<path d="M48.0805 100.028C43.5725 100.028 41.4514 95.4925 41.3628 95.3016C41.2856 95.0893 41.291 94.8557 41.378 94.6473C41.465 94.4388 41.6272 94.2707 41.8324 94.1762C42.0377 94.0818 42.2709 94.0679 42.4858 94.1374C42.7007 94.2069 42.8817 94.3547 42.9928 94.5514C42.9928 94.6128 44.7864 98.3297 48.2169 98.2342C48.4424 98.2469 48.6548 98.3439 48.8122 98.5059C48.9695 98.668 49.0601 98.8833 49.0661 99.109C49.0721 99.3348 48.9931 99.5546 48.8446 99.7248C48.6961 99.895 48.4891 100.003 48.2646 100.028H48.0805Z" fill="#044ECF"/>
<path d="M106.991 37.0444C106.599 37.0461 106.207 37.0211 105.818 36.9694C105.702 36.9519 105.59 36.9117 105.489 36.851C105.388 36.7903 105.3 36.7103 105.23 36.6156C105.16 36.521 105.11 36.4134 105.081 36.2992C105.053 36.1849 105.047 36.0662 105.065 35.9498C105.082 35.8333 105.122 35.7215 105.183 35.6206C105.244 35.5197 105.324 35.4318 105.418 35.3618C105.513 35.2918 105.621 35.2412 105.735 35.2128C105.849 35.1843 105.968 35.1787 106.084 35.1962C106.125 35.1962 110.231 35.7759 112.031 32.8501C112.093 32.7498 112.173 32.6625 112.268 32.5933C112.363 32.5241 112.471 32.4743 112.585 32.4468C112.7 32.4192 112.818 32.4145 112.934 32.4328C113.051 32.4511 113.162 32.4921 113.262 32.5534C113.363 32.6148 113.45 32.6953 113.519 32.7903C113.588 32.8854 113.638 32.9932 113.666 33.1075C113.693 33.2218 113.698 33.3404 113.68 33.4566C113.661 33.5727 113.62 33.6841 113.559 33.7844C111.765 36.6215 108.662 37.0444 106.991 37.0444Z" fill="#044ECF"/>
<path opacity="0.6" d="M106.991 37.0444C106.599 37.0461 106.207 37.0211 105.818 36.9694C105.702 36.9519 105.59 36.9117 105.489 36.851C105.388 36.7903 105.3 36.7103 105.23 36.6156C105.16 36.521 105.11 36.4134 105.081 36.2992C105.053 36.1849 105.047 36.0662 105.065 35.9498C105.082 35.8333 105.122 35.7215 105.183 35.6206C105.244 35.5197 105.324 35.4318 105.418 35.3618C105.513 35.2918 105.621 35.2412 105.735 35.2128C105.849 35.1843 105.968 35.1787 106.084 35.1962C106.125 35.1962 110.231 35.7759 112.031 32.8501C112.093 32.7498 112.173 32.6625 112.268 32.5933C112.363 32.5241 112.471 32.4743 112.585 32.4468C112.7 32.4192 112.818 32.4145 112.934 32.4328C113.051 32.4511 113.162 32.4921 113.262 32.5534C113.363 32.6148 113.45 32.6953 113.519 32.7903C113.588 32.8854 113.638 32.9932 113.666 33.1075C113.693 33.2218 113.698 33.3404 113.68 33.4566C113.661 33.5727 113.62 33.6841 113.559 33.7844C111.765 36.6215 108.662 37.0444 106.991 37.0444Z" fill="white"/>
<path d="M5.78677 71.1987C4.05645 71.1398 2.37604 70.604 0.930929 69.6505C0.828983 69.5852 0.741379 69.4998 0.673438 69.3996C0.605497 69.2994 0.558637 69.1864 0.535703 69.0675C0.51277 68.9486 0.514242 68.8263 0.54003 68.708C0.565817 68.5897 0.615383 68.4779 0.685715 68.3793C0.756048 68.2808 0.845681 68.1976 0.949169 68.1347C1.05266 68.0718 1.16784 68.0307 1.28773 68.0137C1.40761 67.9967 1.52969 68.0043 1.64656 68.036C1.76343 68.0676 1.87264 68.1227 1.96757 68.1979C2.00167 68.1979 5.43895 70.5235 8.33745 68.6753C8.43672 68.6031 8.54971 68.552 8.66946 68.525C8.78922 68.4981 8.91321 68.496 9.03383 68.5187C9.15444 68.5415 9.26913 68.5887 9.37084 68.6574C9.47255 68.7261 9.55914 68.8149 9.62528 68.9183C9.69142 69.0217 9.73571 69.1375 9.75544 69.2587C9.77517 69.3798 9.76992 69.5037 9.74 69.6228C9.71009 69.7418 9.65615 69.8535 9.5815 69.9509C9.50684 70.0483 9.41305 70.1295 9.30589 70.1893C8.25525 70.8592 7.03277 71.2099 5.78677 71.1987Z" fill="#044ECF"/>
<path opacity="0.6" d="M5.78677 71.1987C4.05645 71.1398 2.37604 70.604 0.930929 69.6505C0.828983 69.5852 0.741379 69.4998 0.673438 69.3996C0.605497 69.2994 0.558637 69.1864 0.535703 69.0675C0.51277 68.9486 0.514242 68.8263 0.54003 68.708C0.565817 68.5897 0.615383 68.4779 0.685715 68.3793C0.756048 68.2808 0.845681 68.1976 0.949169 68.1347C1.05266 68.0718 1.16784 68.0307 1.28773 68.0137C1.40761 67.9967 1.52969 68.0043 1.64656 68.036C1.76343 68.0676 1.87264 68.1227 1.96757 68.1979C2.00167 68.1979 5.43895 70.5235 8.33745 68.6753C8.43672 68.6031 8.54971 68.552 8.66946 68.525C8.78922 68.4981 8.91321 68.496 9.03383 68.5187C9.15444 68.5415 9.26913 68.5887 9.37084 68.6574C9.47255 68.7261 9.55914 68.8149 9.62528 68.9183C9.69142 69.0217 9.73571 69.1375 9.75544 69.2587C9.77517 69.3798 9.76992 69.5037 9.74 69.6228C9.71009 69.7418 9.65615 69.8535 9.5815 69.9509C9.50684 70.0483 9.41305 70.1295 9.30589 70.1893C8.25525 70.8592 7.03277 71.2099 5.78677 71.1987Z" fill="white"/>
<path d="M239.734 47.2819C238.006 47.2354 236.324 46.7164 234.871 45.7815C234.676 45.6468 234.542 45.4399 234.499 45.2065C234.456 44.9731 234.508 44.7322 234.643 44.5369C234.777 44.3415 234.984 44.2077 235.218 44.1649C235.451 44.122 235.692 44.1736 235.887 44.3084C235.921 44.3084 239.365 46.6272 242.264 44.7858C242.363 44.7227 242.473 44.6796 242.589 44.6592C242.705 44.6387 242.823 44.6412 242.938 44.6665C243.052 44.6919 243.161 44.7395 243.257 44.8068C243.353 44.8741 243.435 44.9596 243.498 45.0586C243.562 45.1576 243.605 45.268 243.625 45.3836C243.645 45.4992 243.643 45.6177 243.618 45.7323C243.592 45.8469 243.545 45.9554 243.477 46.0517C243.41 46.1479 243.325 46.2299 243.226 46.293C242.182 46.9543 240.969 47.2978 239.734 47.2819Z" fill="#044ECF"/>
<path opacity="0.6" d="M239.734 47.2819C238.006 47.2354 236.324 46.7164 234.871 45.7815C234.676 45.6468 234.542 45.4399 234.499 45.2065C234.456 44.9731 234.508 44.7322 234.643 44.5369C234.777 44.3415 234.984 44.2077 235.218 44.1649C235.451 44.122 235.692 44.1736 235.887 44.3084C235.921 44.3084 239.365 46.6272 242.264 44.7858C242.363 44.7227 242.473 44.6796 242.589 44.6592C242.705 44.6387 242.823 44.6412 242.938 44.6665C243.052 44.6919 243.161 44.7395 243.257 44.8068C243.353 44.8741 243.435 44.9596 243.498 45.0586C243.562 45.1576 243.605 45.268 243.625 45.3836C243.645 45.4992 243.643 45.6177 243.618 45.7323C243.592 45.8469 243.545 45.9554 243.477 46.0517C243.41 46.1479 243.325 46.2299 243.226 46.293C242.182 46.9543 240.969 47.2978 239.734 47.2819Z" fill="white"/>
<path d="M130.051 117.725C125.871 117.725 123.593 113.674 123.491 113.49C123.376 113.282 123.348 113.037 123.414 112.809C123.48 112.58 123.634 112.388 123.842 112.273C124.05 112.158 124.295 112.13 124.523 112.196C124.751 112.262 124.944 112.416 125.059 112.624C125.059 112.679 127.105 116.252 130.515 115.904C130.743 115.897 130.966 115.976 131.138 116.125C131.31 116.275 131.418 116.485 131.442 116.712C131.465 116.939 131.401 117.166 131.264 117.348C131.126 117.53 130.924 117.652 130.699 117.691C130.495 117.712 130.27 117.725 130.051 117.725Z" fill="#044ECF"/>
<path opacity="0.6" d="M130.051 117.725C125.871 117.725 123.593 113.674 123.491 113.49C123.376 113.282 123.348 113.037 123.414 112.809C123.48 112.58 123.634 112.388 123.842 112.273C124.05 112.158 124.295 112.13 124.523 112.196C124.751 112.262 124.944 112.416 125.059 112.624C125.059 112.679 127.105 116.252 130.515 115.904C130.743 115.897 130.966 115.976 131.138 116.125C131.31 116.275 131.418 116.485 131.442 116.712C131.465 116.939 131.401 117.166 131.264 117.348C131.126 117.53 130.924 117.652 130.699 117.691C130.495 117.712 130.27 117.725 130.051 117.725Z" fill="white"/>
<path d="M15.6085 135.942C15.3913 135.94 15.1823 135.859 15.0204 135.715C14.8585 135.57 14.7549 135.371 14.729 135.155C14.7031 134.94 14.7567 134.722 14.8796 134.543C15.0026 134.364 15.1865 134.236 15.3971 134.183C15.438 134.183 19.4414 133.125 19.987 129.729C20.0058 129.613 20.0472 129.502 20.109 129.402C20.1708 129.302 20.2516 129.215 20.3469 129.146C20.4422 129.078 20.5501 129.029 20.6645 129.001C20.7788 128.974 20.8974 128.97 21.0134 128.989C21.1294 129.008 21.2405 129.049 21.3405 129.111C21.4404 129.173 21.5272 129.254 21.5959 129.349C21.6647 129.444 21.7139 129.552 21.7409 129.667C21.7679 129.781 21.7722 129.899 21.7534 130.015C21.0236 134.592 16.0382 135.867 15.8268 135.922C15.7548 135.935 15.6818 135.942 15.6085 135.942Z" fill="#044ECF"/>
<path opacity="0.6" d="M15.6085 135.942C15.3913 135.94 15.1823 135.859 15.0204 135.715C14.8585 135.57 14.7549 135.371 14.729 135.155C14.7031 134.94 14.7567 134.722 14.8796 134.543C15.0026 134.364 15.1865 134.236 15.3971 134.183C15.438 134.183 19.4414 133.125 19.987 129.729C20.0058 129.613 20.0472 129.502 20.109 129.402C20.1708 129.302 20.2516 129.215 20.3469 129.146C20.4422 129.078 20.5501 129.029 20.6645 129.001C20.7788 128.974 20.8974 128.97 21.0134 128.989C21.1294 129.008 21.2405 129.049 21.3405 129.111C21.4404 129.173 21.5272 129.254 21.5959 129.349C21.6647 129.444 21.7139 129.552 21.7409 129.667C21.7679 129.781 21.7722 129.899 21.7534 130.015C21.0236 134.592 16.0382 135.867 15.8268 135.922C15.7548 135.935 15.6818 135.942 15.6085 135.942Z" fill="black"/>
<path d="M214.752 73.7775C214.529 73.7851 214.311 73.7089 214.141 73.564C213.972 73.419 213.862 73.2157 213.835 72.9941C213.807 72.7726 213.864 72.5488 213.993 72.3668C214.123 72.1849 214.316 72.058 214.534 72.0111C214.575 72.0111 218.578 70.9608 219.124 67.5645C219.135 67.4415 219.171 67.3222 219.231 67.2139C219.29 67.1056 219.371 67.0107 219.468 66.935C219.566 66.8594 219.678 66.8046 219.798 66.774C219.917 66.7435 220.042 66.7379 220.164 66.7576C220.286 66.7773 220.402 66.8218 220.506 66.8885C220.61 66.9551 220.699 67.0424 220.768 67.1449C220.837 67.2475 220.884 67.3631 220.906 67.4845C220.928 67.606 220.925 67.7307 220.897 67.8509C220.16 72.4271 215.175 73.7024 214.964 73.7502C214.895 73.7693 214.824 73.7785 214.752 73.7775Z" fill="#044ECF"/>
<path opacity="0.6" d="M214.752 73.7775C214.529 73.7851 214.311 73.7089 214.141 73.564C213.972 73.419 213.862 73.2157 213.835 72.9941C213.807 72.7726 213.864 72.5488 213.993 72.3668C214.123 72.1849 214.316 72.058 214.534 72.0111C214.575 72.0111 218.578 70.9608 219.124 67.5645C219.135 67.4415 219.171 67.3222 219.231 67.2139C219.29 67.1056 219.371 67.0107 219.468 66.935C219.566 66.8594 219.678 66.8046 219.798 66.774C219.917 66.7435 220.042 66.7379 220.164 66.7576C220.286 66.7773 220.402 66.8218 220.506 66.8885C220.61 66.9551 220.699 67.0424 220.768 67.1449C220.837 67.2475 220.884 67.3631 220.906 67.4845C220.928 67.606 220.925 67.7307 220.897 67.8509C220.16 72.4271 215.175 73.7024 214.964 73.7502C214.895 73.7693 214.824 73.7785 214.752 73.7775Z" fill="black"/>
<path d="M251.394 107.782H251.244C251.026 107.741 245.966 106.814 244.922 102.326C244.895 102.211 244.891 102.091 244.911 101.974C244.931 101.857 244.973 101.745 245.037 101.644C245.1 101.544 245.183 101.457 245.281 101.39C245.378 101.322 245.488 101.274 245.604 101.249C245.72 101.223 245.839 101.22 245.956 101.24C246.073 101.26 246.184 101.303 246.284 101.366C246.385 101.429 246.471 101.512 246.539 101.609C246.607 101.706 246.656 101.815 246.682 101.931C247.459 105.273 251.524 106.023 251.565 106.023C251.78 106.069 251.97 106.192 252.101 106.368C252.231 106.545 252.293 106.763 252.273 106.982C252.254 107.201 252.155 107.405 251.996 107.556C251.837 107.707 251.627 107.795 251.408 107.803L251.394 107.782Z" fill="#044ECF"/>
<path d="M235.411 140.662C233.849 140.686 232.33 140.152 231.128 139.155C231.028 139.083 230.943 138.991 230.88 138.886C230.817 138.78 230.776 138.662 230.761 138.54C230.746 138.418 230.755 138.293 230.79 138.175C230.825 138.057 230.884 137.947 230.963 137.853C231.042 137.759 231.14 137.682 231.251 137.627C231.361 137.572 231.482 137.541 231.605 137.535C231.728 137.529 231.851 137.549 231.966 137.593C232.081 137.637 232.186 137.704 232.274 137.791C234.913 139.987 238.616 138.145 238.657 138.125C238.869 138.016 239.115 137.996 239.341 138.069C239.568 138.142 239.756 138.302 239.864 138.513C239.973 138.725 239.993 138.971 239.92 139.198C239.847 139.424 239.687 139.612 239.476 139.721C238.205 140.325 236.818 140.646 235.411 140.662Z" fill="#044ECF"/>
<path d="M193.613 28.7314C193.457 28.7325 193.304 28.6925 193.17 28.6154C192.985 28.5131 188.532 25.9352 189.078 21.3317C189.105 21.0956 189.224 20.88 189.411 20.7323C189.597 20.5846 189.834 20.5168 190.07 20.5439C190.306 20.5711 190.521 20.6909 190.669 20.877C190.817 21.0631 190.885 21.3002 190.858 21.5363C190.469 24.9463 194.042 27.04 194.077 27.0605C194.25 27.1586 194.386 27.312 194.462 27.4963C194.539 27.6805 194.551 27.885 194.498 28.0772C194.445 28.2694 194.328 28.4382 194.168 28.5567C194.008 28.6753 193.812 28.7368 193.613 28.7314Z" fill="#044ECF"/>
<path d="M15.4669 32.3657C15.3495 32.3706 15.2324 32.3524 15.1221 32.3121C15.0118 32.2717 14.9106 32.21 14.8241 32.1306C14.7377 32.0511 14.6678 31.9554 14.6183 31.8489C14.5689 31.7423 14.5409 31.6271 14.5359 31.5098C14.531 31.3925 14.5492 31.2753 14.5896 31.1651C14.6299 31.0548 14.6916 30.9535 14.7711 30.8671C14.8506 30.7806 14.9463 30.7107 15.0528 30.6612C15.1593 30.6118 15.2745 30.5838 15.3919 30.5789C18.8019 30.2788 20.1659 26.3641 20.1659 26.3232C20.2451 26.1056 20.4057 25.9272 20.6139 25.8257C20.8221 25.7242 21.0615 25.7075 21.2818 25.7792C21.502 25.8508 21.6858 26.0052 21.7944 26.2097C21.9031 26.4143 21.928 26.653 21.864 26.8756C21.8026 27.087 20.1659 31.9633 15.5487 32.3316L15.4669 32.3657Z" fill="#044ECF"/>
<path d="M68.0805 220.49C63.5725 220.49 61.4514 215.954 61.3628 215.763C61.2856 215.551 61.291 215.318 61.378 215.109C61.465 214.901 61.6272 214.733 61.8324 214.638C62.0377 214.544 62.2709 214.53 62.4858 214.599C62.7007 214.669 62.8817 214.817 62.9928 215.013C62.9928 215.075 64.7864 218.792 68.2169 218.696C68.4424 218.709 68.6548 218.806 68.8122 218.968C68.9695 219.13 69.0601 219.345 69.0661 219.571C69.0721 219.797 68.9931 220.017 68.8446 220.187C68.6961 220.357 68.4891 220.465 68.2646 220.49H68.0805Z" fill="#044ECF"/>
<path d="M126.991 157.506C126.599 157.508 126.207 157.483 125.818 157.431C125.702 157.414 125.59 157.374 125.489 157.313C125.388 157.252 125.3 157.172 125.23 157.078C125.16 156.983 125.11 156.875 125.081 156.761C125.053 156.647 125.047 156.528 125.065 156.412C125.082 156.295 125.122 156.183 125.183 156.083C125.244 155.982 125.324 155.894 125.418 155.824C125.513 155.754 125.621 155.703 125.735 155.675C125.849 155.646 125.968 155.641 126.084 155.658C126.125 155.658 130.231 156.238 132.031 153.312C132.093 153.212 132.173 153.124 132.268 153.055C132.363 152.986 132.471 152.936 132.585 152.909C132.7 152.881 132.818 152.876 132.934 152.895C133.051 152.913 133.162 152.954 133.262 153.015C133.363 153.077 133.45 153.157 133.519 153.252C133.588 153.347 133.638 153.455 133.666 153.569C133.693 153.684 133.698 153.802 133.68 153.918C133.661 154.035 133.62 154.146 133.559 154.246C131.765 157.083 128.662 157.506 126.991 157.506Z" fill="#044ECF"/>
<path opacity="0.6" d="M126.991 157.506C126.599 157.508 126.207 157.483 125.818 157.431C125.702 157.414 125.59 157.374 125.489 157.313C125.388 157.252 125.3 157.172 125.23 157.078C125.16 156.983 125.11 156.875 125.081 156.761C125.053 156.647 125.047 156.528 125.065 156.412C125.082 156.295 125.122 156.183 125.183 156.083C125.244 155.982 125.324 155.894 125.418 155.824C125.513 155.754 125.621 155.703 125.735 155.675C125.849 155.646 125.968 155.641 126.084 155.658C126.125 155.658 130.231 156.238 132.031 153.312C132.093 153.212 132.173 153.124 132.268 153.055C132.363 152.986 132.471 152.936 132.585 152.909C132.7 152.881 132.818 152.876 132.934 152.895C133.051 152.913 133.162 152.954 133.262 153.015C133.363 153.077 133.45 153.157 133.519 153.252C133.588 153.347 133.638 153.455 133.666 153.569C133.693 153.684 133.698 153.802 133.68 153.918C133.661 154.035 133.62 154.146 133.559 154.246C131.765 157.083 128.662 157.506 126.991 157.506Z" fill="white"/>
<path d="M25.7868 191.661C24.0565 191.602 22.376 191.066 20.9309 190.112C20.829 190.047 20.7414 189.962 20.6734 189.862C20.6055 189.761 20.5586 189.648 20.5357 189.529C20.5128 189.411 20.5142 189.288 20.54 189.17C20.5658 189.052 20.6154 188.94 20.6857 188.841C20.756 188.743 20.8457 188.659 20.9492 188.597C21.0527 188.534 21.1678 188.493 21.2877 188.476C21.4076 188.459 21.5297 188.466 21.6466 188.498C21.7634 188.53 21.8726 188.585 21.9676 188.66C22.0017 188.66 25.4389 190.985 28.3374 189.137C28.4367 189.065 28.5497 189.014 28.6695 188.987C28.7892 188.96 28.9132 188.958 29.0338 188.981C29.1544 189.003 29.2691 189.051 29.3708 189.119C29.4726 189.188 29.5591 189.277 29.6253 189.38C29.6914 189.484 29.7357 189.599 29.7554 189.721C29.7752 189.842 29.7699 189.966 29.74 190.085C29.7101 190.204 29.6562 190.315 29.5815 190.413C29.5068 190.51 29.4131 190.591 29.3059 190.651C28.2552 191.321 27.0328 191.672 25.7868 191.661Z" fill="#044ECF"/>
<path opacity="0.6" d="M25.7868 191.661C24.0565 191.602 22.376 191.066 20.9309 190.112C20.829 190.047 20.7414 189.962 20.6734 189.862C20.6055 189.761 20.5586 189.648 20.5357 189.529C20.5128 189.411 20.5142 189.288 20.54 189.17C20.5658 189.052 20.6154 188.94 20.6857 188.841C20.756 188.743 20.8457 188.659 20.9492 188.597C21.0527 188.534 21.1678 188.493 21.2877 188.476C21.4076 188.459 21.5297 188.466 21.6466 188.498C21.7634 188.53 21.8726 188.585 21.9676 188.66C22.0017 188.66 25.4389 190.985 28.3374 189.137C28.4367 189.065 28.5497 189.014 28.6695 188.987C28.7892 188.96 28.9132 188.958 29.0338 188.981C29.1544 189.003 29.2691 189.051 29.3708 189.119C29.4726 189.188 29.5591 189.277 29.6253 189.38C29.6914 189.484 29.7357 189.599 29.7554 189.721C29.7752 189.842 29.7699 189.966 29.74 190.085C29.7101 190.204 29.6562 190.315 29.5815 190.413C29.5068 190.51 29.4131 190.591 29.3059 190.651C28.2552 191.321 27.0328 191.672 25.7868 191.661Z" fill="white"/>
<path d="M259.734 167.744C258.006 167.697 256.324 167.178 254.871 166.243C254.676 166.109 254.542 165.902 254.499 165.668C254.456 165.435 254.508 165.194 254.643 164.999C254.777 164.803 254.984 164.67 255.218 164.627C255.451 164.584 255.692 164.636 255.887 164.77C255.921 164.77 259.365 167.089 262.264 165.248C262.363 165.185 262.473 165.142 262.589 165.121C262.705 165.101 262.823 165.103 262.938 165.128C263.052 165.154 263.161 165.201 263.257 165.269C263.353 165.336 263.435 165.422 263.498 165.521C263.562 165.619 263.605 165.73 263.625 165.845C263.645 165.961 263.643 166.08 263.618 166.194C263.592 166.309 263.545 166.417 263.477 166.514C263.41 166.61 263.325 166.692 263.226 166.755C262.182 167.416 260.969 167.76 259.734 167.744Z" fill="#044ECF"/>
<path opacity="0.6" d="M259.734 167.744C258.006 167.697 256.324 167.178 254.871 166.243C254.676 166.109 254.542 165.902 254.499 165.668C254.456 165.435 254.508 165.194 254.643 164.999C254.777 164.803 254.984 164.67 255.218 164.627C255.451 164.584 255.692 164.636 255.887 164.77C255.921 164.77 259.365 167.089 262.264 165.248C262.363 165.185 262.473 165.142 262.589 165.121C262.705 165.101 262.823 165.103 262.938 165.128C263.052 165.154 263.161 165.201 263.257 165.269C263.353 165.336 263.435 165.422 263.498 165.521C263.562 165.619 263.605 165.73 263.625 165.845C263.645 165.961 263.643 166.08 263.618 166.194C263.592 166.309 263.545 166.417 263.477 166.514C263.41 166.61 263.325 166.692 263.226 166.755C262.182 167.416 260.969 167.76 259.734 167.744Z" fill="white"/>
<path d="M150.051 238.187C145.871 238.187 143.593 234.136 143.491 233.952C143.376 233.744 143.348 233.499 143.414 233.271C143.48 233.042 143.634 232.85 143.842 232.735C144.05 232.62 144.295 232.592 144.523 232.658C144.751 232.724 144.944 232.878 145.059 233.086C145.059 233.14 147.105 236.714 150.515 236.366C150.743 236.358 150.966 236.437 151.138 236.587C151.31 236.737 151.418 236.947 151.442 237.174C151.465 237.401 151.401 237.628 151.264 237.81C151.126 237.992 150.924 238.114 150.699 238.153C150.495 238.174 150.27 238.187 150.051 238.187Z" fill="#044ECF"/>
<path opacity="0.6" d="M150.051 238.187C145.871 238.187 143.593 234.136 143.491 233.952C143.376 233.744 143.348 233.499 143.414 233.271C143.48 233.042 143.634 232.85 143.842 232.735C144.05 232.62 144.295 232.592 144.523 232.658C144.751 232.724 144.944 232.878 145.059 233.086C145.059 233.14 147.105 236.714 150.515 236.366C150.743 236.358 150.966 236.437 151.138 236.587C151.31 236.737 151.418 236.947 151.442 237.174C151.465 237.401 151.401 237.628 151.264 237.81C151.126 237.992 150.924 238.114 150.699 238.153C150.495 238.174 150.27 238.187 150.051 238.187Z" fill="white"/>
<path d="M35.6085 256.404C35.3913 256.402 35.1823 256.321 35.0204 256.176C34.8585 256.032 34.7549 255.833 34.729 255.617C34.7031 255.402 34.7567 255.184 34.8796 255.005C35.0026 254.826 35.1865 254.698 35.3971 254.644C35.438 254.644 39.4414 253.587 39.987 250.191C40.0058 250.075 40.0472 249.964 40.109 249.864C40.1708 249.764 40.2516 249.677 40.3469 249.608C40.4422 249.54 40.5501 249.49 40.6645 249.463C40.7788 249.436 40.8974 249.432 41.0134 249.451C41.1294 249.47 41.2405 249.511 41.3405 249.573C41.4404 249.635 41.5272 249.716 41.5959 249.811C41.6647 249.906 41.7139 250.014 41.7409 250.129C41.7679 250.243 41.7722 250.361 41.7534 250.477C41.0236 255.054 36.0382 256.329 35.8268 256.384C35.7548 256.397 35.6818 256.404 35.6085 256.404Z" fill="#044ECF"/>
<path opacity="0.6" d="M35.6085 256.404C35.3913 256.402 35.1823 256.321 35.0204 256.176C34.8585 256.032 34.7549 255.833 34.729 255.617C34.7031 255.402 34.7567 255.184 34.8796 255.005C35.0026 254.826 35.1865 254.698 35.3971 254.644C35.438 254.644 39.4414 253.587 39.987 250.191C40.0058 250.075 40.0472 249.964 40.109 249.864C40.1708 249.764 40.2516 249.677 40.3469 249.608C40.4422 249.54 40.5501 249.49 40.6645 249.463C40.7788 249.436 40.8974 249.432 41.0134 249.451C41.1294 249.47 41.2405 249.511 41.3405 249.573C41.4404 249.635 41.5272 249.716 41.5959 249.811C41.6647 249.906 41.7139 250.014 41.7409 250.129C41.7679 250.243 41.7722 250.361 41.7534 250.477C41.0236 255.054 36.0382 256.329 35.8268 256.384C35.7548 256.397 35.6818 256.404 35.6085 256.404Z" fill="black"/>
<path d="M234.752 194.239C234.529 194.247 234.311 194.171 234.141 194.026C233.972 193.881 233.862 193.678 233.835 193.456C233.807 193.234 233.864 193.011 233.993 192.829C234.123 192.647 234.316 192.52 234.534 192.473C234.575 192.473 238.578 191.423 239.124 188.026C239.135 187.903 239.171 187.784 239.231 187.676C239.29 187.568 239.371 187.473 239.468 187.397C239.566 187.321 239.678 187.266 239.798 187.236C239.917 187.205 240.042 187.2 240.164 187.22C240.286 187.239 240.402 187.284 240.506 187.35C240.61 187.417 240.699 187.504 240.768 187.607C240.837 187.709 240.884 187.825 240.906 187.946C240.928 188.068 240.925 188.193 240.897 188.313C240.16 192.889 235.175 194.164 234.964 194.212C234.895 194.231 234.824 194.24 234.752 194.239Z" fill="#044ECF"/>
<path opacity="0.6" d="M234.752 194.239C234.529 194.247 234.311 194.171 234.141 194.026C233.972 193.881 233.862 193.678 233.835 193.456C233.807 193.234 233.864 193.011 233.993 192.829C234.123 192.647 234.316 192.52 234.534 192.473C234.575 192.473 238.578 191.423 239.124 188.026C239.135 187.903 239.171 187.784 239.231 187.676C239.29 187.568 239.371 187.473 239.468 187.397C239.566 187.321 239.678 187.266 239.798 187.236C239.917 187.205 240.042 187.2 240.164 187.22C240.286 187.239 240.402 187.284 240.506 187.35C240.61 187.417 240.699 187.504 240.768 187.607C240.837 187.709 240.884 187.825 240.906 187.946C240.928 188.068 240.925 188.193 240.897 188.313C240.16 192.889 235.175 194.164 234.964 194.212C234.895 194.231 234.824 194.24 234.752 194.239Z" fill="black"/>
<path d="M271.394 228.244H271.244C271.026 228.203 265.966 227.276 264.922 222.788C264.895 222.673 264.891 222.553 264.911 222.436C264.931 222.319 264.973 222.207 265.037 222.106C265.1 222.006 265.183 221.919 265.281 221.851C265.378 221.784 265.488 221.736 265.604 221.711C265.72 221.685 265.839 221.681 265.956 221.702C266.073 221.722 266.184 221.765 266.284 221.828C266.385 221.891 266.471 221.974 266.539 222.071C266.607 222.168 266.656 222.277 266.682 222.393C267.459 225.735 271.524 226.485 271.565 226.485C271.78 226.531 271.97 226.654 272.101 226.83C272.231 227.007 272.293 227.225 272.273 227.444C272.254 227.663 272.155 227.867 271.996 228.018C271.837 228.169 271.627 228.257 271.408 228.265L271.394 228.244Z" fill="#044ECF"/>
<path d="M213.613 149.193C213.457 149.194 213.304 149.154 213.17 149.077C212.985 148.975 208.532 146.397 209.078 141.794C209.105 141.558 209.224 141.342 209.411 141.194C209.597 141.046 209.834 140.979 210.07 141.006C210.306 141.033 210.521 141.153 210.669 141.339C210.817 141.525 210.885 141.762 210.858 141.998C210.469 145.408 214.042 147.502 214.077 147.522C214.25 147.621 214.386 147.774 214.462 147.958C214.539 148.142 214.551 148.347 214.498 148.539C214.445 148.731 214.328 148.9 214.168 149.019C214.008 149.137 213.812 149.199 213.613 149.193Z" fill="#044ECF"/>
<path d="M35.4669 152.828C35.3495 152.833 35.2324 152.814 35.1221 152.774C35.0118 152.734 34.9106 152.672 34.8241 152.592C34.7377 152.513 34.6678 152.417 34.6183 152.311C34.5689 152.204 34.5409 152.089 34.5359 151.972C34.531 151.854 34.5492 151.737 34.5896 151.627C34.6299 151.517 34.6916 151.415 34.7711 151.329C34.8506 151.243 34.9463 151.173 35.0528 151.123C35.1593 151.074 35.2745 151.046 35.3919 151.041C38.8019 150.741 40.1659 146.826 40.1659 146.785C40.2451 146.567 40.4057 146.389 40.6139 146.288C40.8221 146.186 41.0615 146.169 41.2818 146.241C41.502 146.313 41.6858 146.467 41.7944 146.672C41.9031 146.876 41.928 147.115 41.864 147.338C41.8026 147.549 40.1659 152.425 35.5487 152.794L35.4669 152.828Z" fill="#044ECF"/>
<path d="M214.966 40.6348C219.474 40.6348 221.595 45.1701 221.684 45.361C221.761 45.5733 221.756 45.8069 221.669 46.0153C221.582 46.2238 221.42 46.3919 221.214 46.4864C221.009 46.5808 220.776 46.5947 220.561 46.5252C220.346 46.4557 220.165 46.3079 220.054 46.1112C220.054 46.0498 218.26 42.3329 214.83 42.4284C214.605 42.4157 214.392 42.3187 214.235 42.1567C214.077 41.9946 213.987 41.7793 213.981 41.5536C213.975 41.3278 214.054 41.108 214.202 40.9378C214.351 40.7676 214.558 40.6595 214.782 40.6348H214.966Z" fill="#044ECF"/>
<path d="M156.056 103.618C156.448 103.616 156.84 103.642 157.229 103.693C157.345 103.711 157.457 103.751 157.558 103.812C157.659 103.872 157.747 103.952 157.817 104.047C157.887 104.142 157.937 104.249 157.966 104.363C157.994 104.478 158 104.596 157.982 104.713C157.965 104.829 157.925 104.941 157.864 105.042C157.803 105.143 157.723 105.231 157.629 105.301C157.534 105.371 157.426 105.421 157.312 105.45C157.198 105.478 157.079 105.484 156.963 105.466C156.922 105.466 152.816 104.887 151.016 107.813C150.954 107.913 150.874 108 150.779 108.069C150.684 108.138 150.576 108.188 150.462 108.216C150.347 108.243 150.229 108.248 150.113 108.23C149.996 108.212 149.885 108.171 149.785 108.109C149.684 108.048 149.597 107.967 149.528 107.872C149.459 107.777 149.409 107.669 149.381 107.555C149.354 107.441 149.349 107.322 149.367 107.206C149.386 107.09 149.427 106.978 149.488 106.878C151.282 104.041 154.385 103.618 156.056 103.618Z" fill="#044ECF"/>
<path opacity="0.6" d="M156.056 103.618C156.448 103.616 156.84 103.642 157.229 103.693C157.345 103.711 157.457 103.751 157.558 103.812C157.659 103.872 157.747 103.952 157.817 104.047C157.887 104.142 157.937 104.249 157.966 104.363C157.994 104.478 158 104.596 157.982 104.713C157.965 104.829 157.925 104.941 157.864 105.042C157.803 105.143 157.723 105.231 157.629 105.301C157.534 105.371 157.426 105.421 157.312 105.45C157.198 105.478 157.079 105.484 156.963 105.466C156.922 105.466 152.816 104.887 151.016 107.813C150.954 107.913 150.874 108 150.779 108.069C150.684 108.138 150.576 108.188 150.462 108.216C150.347 108.243 150.229 108.248 150.113 108.23C149.996 108.212 149.885 108.171 149.785 108.109C149.684 108.048 149.597 107.967 149.528 107.872C149.459 107.777 149.409 107.669 149.381 107.555C149.354 107.441 149.349 107.322 149.367 107.206C149.386 107.09 149.427 106.978 149.488 106.878C151.282 104.041 154.385 103.618 156.056 103.618Z" fill="white"/>
<path d="M257.26 69.4639C258.99 69.5228 260.671 70.0586 262.116 71.0121C262.218 71.0774 262.305 71.1627 262.373 71.263C262.441 71.3632 262.488 71.4762 262.511 71.5951C262.534 71.714 262.533 71.8363 262.507 71.9546C262.481 72.0729 262.431 72.1847 262.361 72.2833C262.291 72.3818 262.201 72.465 262.098 72.5279C261.994 72.5908 261.879 72.6319 261.759 72.6489C261.639 72.6659 261.517 72.6583 261.4 72.6266C261.283 72.595 261.174 72.5399 261.079 72.4647C261.045 72.4647 257.608 70.1391 254.709 71.9873C254.61 72.0595 254.497 72.1106 254.377 72.1376C254.258 72.1645 254.134 72.1666 254.013 72.1439C253.892 72.1211 253.778 72.0739 253.676 72.0052C253.574 71.9365 253.488 71.8477 253.422 71.7443C253.355 71.6409 253.311 71.5251 253.291 71.4039C253.272 71.2828 253.277 71.1589 253.307 71.0398C253.337 70.9208 253.391 70.8091 253.465 70.7117C253.54 70.6143 253.634 70.5331 253.741 70.4733C254.792 69.8034 256.014 69.4527 257.26 69.4639Z" fill="#044ECF"/>
<path opacity="0.6" d="M257.26 69.4639C258.99 69.5228 260.671 70.0586 262.116 71.0121C262.218 71.0774 262.305 71.1627 262.373 71.263C262.441 71.3632 262.488 71.4762 262.511 71.5951C262.534 71.714 262.533 71.8363 262.507 71.9546C262.481 72.0729 262.431 72.1847 262.361 72.2833C262.291 72.3818 262.201 72.465 262.098 72.5279C261.994 72.5908 261.879 72.6319 261.759 72.6489C261.639 72.6659 261.517 72.6583 261.4 72.6266C261.283 72.595 261.174 72.5399 261.079 72.4647C261.045 72.4647 257.608 70.1391 254.709 71.9873C254.61 72.0595 254.497 72.1106 254.377 72.1376C254.258 72.1645 254.134 72.1666 254.013 72.1439C253.892 72.1211 253.778 72.0739 253.676 72.0052C253.574 71.9365 253.488 71.8477 253.422 71.7443C253.355 71.6409 253.311 71.5251 253.291 71.4039C253.272 71.2828 253.277 71.1589 253.307 71.0398C253.337 70.9208 253.391 70.8091 253.465 70.7117C253.54 70.6143 253.634 70.5331 253.741 70.4733C254.792 69.8034 256.014 69.4527 257.26 69.4639Z" fill="white"/>
<path d="M23.3131 93.3807C25.0406 93.4272 26.7224 93.9462 28.1758 94.8811C28.3711 95.0158 28.5049 95.2227 28.5478 95.4561C28.5906 95.6895 28.539 95.9304 28.4042 96.1257C28.2695 96.3211 28.0627 96.4549 27.8292 96.4977C27.5958 96.5406 27.355 96.489 27.1596 96.3542C27.1255 96.3542 23.6814 94.0354 20.7829 95.8768C20.6839 95.9399 20.5735 95.983 20.4579 96.0034C20.3423 96.0239 20.2238 96.0214 20.1092 95.9961C19.9946 95.9707 19.8861 95.9231 19.7899 95.8558C19.6936 95.7885 19.6116 95.703 19.5485 95.604C19.4853 95.505 19.4423 95.3946 19.4218 95.279C19.4014 95.1634 19.4039 95.0449 19.4292 94.9303C19.4546 94.8157 19.5022 94.7072 19.5695 94.6109C19.6368 94.5147 19.7223 94.4327 19.8213 94.3696C20.8647 93.7083 22.0779 93.3648 23.3131 93.3807Z" fill="#044ECF"/>
<path opacity="0.6" d="M23.3131 93.3807C25.0406 93.4272 26.7224 93.9462 28.1758 94.8811C28.3711 95.0158 28.5049 95.2227 28.5478 95.4561C28.5906 95.6895 28.539 95.9304 28.4042 96.1257C28.2695 96.3211 28.0627 96.4549 27.8292 96.4977C27.5958 96.5406 27.355 96.489 27.1596 96.3542C27.1255 96.3542 23.6814 94.0354 20.7829 95.8768C20.6839 95.9399 20.5735 95.983 20.4579 96.0034C20.3423 96.0239 20.2238 96.0214 20.1092 95.9961C19.9946 95.9707 19.8861 95.9231 19.7899 95.8558C19.6936 95.7885 19.6116 95.703 19.5485 95.604C19.4853 95.505 19.4423 95.3946 19.4218 95.279C19.4014 95.1634 19.4039 95.0449 19.4292 94.9303C19.4546 94.8157 19.5022 94.7072 19.5695 94.6109C19.6368 94.5147 19.7223 94.4327 19.8213 94.3696C20.8647 93.7083 22.0779 93.3648 23.3131 93.3807Z" fill="white"/>
<path d="M132.996 22.9372C137.176 22.9372 139.454 26.9883 139.556 27.1725C139.671 27.3805 139.699 27.6256 139.633 27.8539C139.567 28.0822 139.413 28.275 139.205 28.3898C138.997 28.5047 138.752 28.5322 138.524 28.4664C138.295 28.4005 138.103 28.2466 137.988 28.0386C137.988 27.9841 135.942 24.4104 132.532 24.7582C132.304 24.7661 132.081 24.6871 131.909 24.5372C131.737 24.3873 131.629 24.1777 131.605 23.9508C131.582 23.7238 131.645 23.4965 131.783 23.3146C131.921 23.1328 132.123 23.0101 132.348 22.9713C132.552 22.9509 132.777 22.9372 132.996 22.9372Z" fill="#044ECF"/>
<path opacity="0.6" d="M132.996 22.9372C137.176 22.9372 139.454 26.9883 139.556 27.1725C139.671 27.3805 139.699 27.6256 139.633 27.8539C139.567 28.0822 139.413 28.275 139.205 28.3898C138.997 28.5047 138.752 28.5322 138.524 28.4664C138.295 28.4005 138.103 28.2466 137.988 28.0386C137.988 27.9841 135.942 24.4104 132.532 24.7582C132.304 24.7661 132.081 24.6871 131.909 24.5372C131.737 24.3873 131.629 24.1777 131.605 23.9508C131.582 23.7238 131.645 23.4965 131.783 23.3146C131.921 23.1328 132.123 23.0101 132.348 22.9713C132.552 22.9509 132.777 22.9372 132.996 22.9372Z" fill="white"/>
<path d="M247.438 4.72053C247.656 4.72237 247.865 4.80325 248.026 4.94806C248.188 5.09287 248.292 5.2917 248.318 5.50734C248.344 5.72298 248.29 5.94067 248.167 6.11971C248.044 6.29874 247.86 6.42687 247.65 6.4801C247.609 6.4801 243.606 7.5372 243.06 10.9336C243.041 11.0495 243 11.1607 242.938 11.2606C242.876 11.3606 242.795 11.4474 242.7 11.5161C242.605 11.5848 242.497 11.6341 242.382 11.6611C242.268 11.6881 242.149 11.6923 242.033 11.6735C241.918 11.6547 241.806 11.6132 241.706 11.5515C241.606 11.4897 241.52 11.4089 241.451 11.3136C241.382 11.2183 241.333 11.1103 241.306 10.996C241.279 10.8816 241.275 10.7631 241.294 10.6471C242.023 6.0709 247.009 4.79555 247.22 4.74099C247.292 4.72742 247.365 4.72057 247.438 4.72053Z" fill="#044ECF"/>
<path opacity="0.6" d="M247.438 4.72053C247.656 4.72237 247.865 4.80325 248.026 4.94806C248.188 5.09287 248.292 5.2917 248.318 5.50734C248.344 5.72298 248.29 5.94067 248.167 6.11971C248.044 6.29874 247.86 6.42687 247.65 6.4801C247.609 6.4801 243.606 7.5372 243.06 10.9336C243.041 11.0495 243 11.1607 242.938 11.2606C242.876 11.3606 242.795 11.4474 242.7 11.5161C242.605 11.5848 242.497 11.6341 242.382 11.6611C242.268 11.6881 242.149 11.6923 242.033 11.6735C241.918 11.6547 241.806 11.6132 241.706 11.5515C241.606 11.4897 241.52 11.4089 241.451 11.3136C241.382 11.2183 241.333 11.1103 241.306 10.996C241.279 10.8816 241.275 10.7631 241.294 10.6471C242.023 6.0709 247.009 4.79555 247.22 4.74099C247.292 4.72742 247.365 4.72057 247.438 4.72053Z" fill="black"/>
<path d="M48.2948 66.8851C48.5179 66.8775 48.7358 66.9537 48.9055 67.0986C49.0753 67.2436 49.1846 67.4469 49.212 67.6685C49.2394 67.89 49.1828 68.1138 49.0535 68.2958C48.9241 68.4777 48.7313 68.6046 48.513 68.6515C48.4721 68.6515 44.4688 69.7018 43.9232 73.0981C43.9119 73.2211 43.8755 73.3404 43.8162 73.4487C43.7569 73.557 43.676 73.6519 43.5784 73.7276C43.4809 73.8032 43.3688 73.858 43.2492 73.8886C43.1296 73.9191 43.005 73.9247 42.8831 73.905C42.7612 73.8853 42.6447 73.8408 42.5408 73.7741C42.4368 73.7075 42.3477 73.6202 42.2789 73.5177C42.2102 73.4151 42.1633 73.2995 42.1411 73.1781C42.1189 73.0566 42.1219 72.9319 42.15 72.8117C42.8865 68.2355 47.8719 66.9602 48.0834 66.9124C48.1522 66.8933 48.2234 66.8841 48.2948 66.8851Z" fill="#044ECF"/>
<path opacity="0.6" d="M48.2948 66.8851C48.5179 66.8775 48.7358 66.9537 48.9055 67.0986C49.0753 67.2436 49.1846 67.4469 49.212 67.6685C49.2394 67.89 49.1828 68.1138 49.0535 68.2958C48.9241 68.4777 48.7313 68.6046 48.513 68.6515C48.4721 68.6515 44.4688 69.7018 43.9232 73.0981C43.9119 73.2211 43.8755 73.3404 43.8162 73.4487C43.7569 73.557 43.676 73.6519 43.5784 73.7276C43.4809 73.8032 43.3688 73.858 43.2492 73.8886C43.1296 73.9191 43.005 73.9247 42.8831 73.905C42.7612 73.8853 42.6447 73.8408 42.5408 73.7741C42.4368 73.7075 42.3477 73.6202 42.2789 73.5177C42.2102 73.4151 42.1633 73.2995 42.1411 73.1781C42.1189 73.0566 42.1219 72.9319 42.15 72.8117C42.8865 68.2355 47.8719 66.9602 48.0834 66.9124C48.1522 66.8933 48.2234 66.8841 48.2948 66.8851Z" fill="black"/>
<path d="M11.6526 32.8802H11.8027C12.0209 32.9211 17.0814 33.8487 18.1248 38.3362C18.1519 38.4518 18.1557 38.5717 18.136 38.6887C18.1163 38.8058 18.0734 38.9178 18.0099 39.0181C17.9464 39.1185 17.8636 39.2051 17.7662 39.273C17.6688 39.341 17.5589 39.3888 17.4428 39.4138C17.3273 39.44 17.2077 39.4431 17.0909 39.4229C16.9742 39.4028 16.8626 39.3598 16.7625 39.2965C16.6624 39.2331 16.5757 39.1506 16.5076 39.0537C16.4394 38.9568 16.391 38.8474 16.3652 38.7318C15.5878 35.39 11.523 34.6398 11.4821 34.6398C11.2673 34.5938 11.0767 34.4709 10.9463 34.2942C10.8158 34.1176 10.7544 33.8992 10.7737 33.6804C10.7929 33.4616 10.8916 33.2574 11.0509 33.1063C11.2103 32.9551 11.4195 32.8674 11.639 32.8598L11.6526 32.8802Z" fill="#044ECF"/>
<path d="M27.6359 0.000827551C29.1977 -0.0237298 30.7167 0.510839 31.9189 1.50804C32.0192 1.57967 32.1035 1.67126 32.1667 1.77706C32.2298 1.88286 32.2704 2.00058 32.2859 2.12282C32.3014 2.24506 32.2914 2.36918 32.2566 2.48738C32.2218 2.60557 32.1629 2.71529 32.0836 2.80963C32.0044 2.90398 31.9065 2.98091 31.7961 3.0356C31.6857 3.09029 31.5651 3.12155 31.442 3.12741C31.319 3.13327 31.196 3.11361 31.0809 3.06966C30.9658 3.02572 30.861 2.95843 30.7731 2.87204C28.1338 0.676002 24.4306 2.51741 24.3896 2.53787C24.178 2.64639 23.9319 2.6664 23.7056 2.5935C23.4792 2.5206 23.291 2.36075 23.1825 2.14912C23.074 1.9375 23.054 1.69142 23.1269 1.46504C23.1998 1.23866 23.3596 1.05051 23.5712 0.94198C24.842 0.337486 26.2289 0.0163634 27.6359 0.000827551Z" fill="#044ECF"/>
<path d="M69.434 111.931C69.5894 111.93 69.7424 111.97 69.8773 112.047C70.0615 112.149 74.5149 114.727 73.9693 119.331C73.9422 119.567 73.8224 119.783 73.6363 119.93C73.4502 120.078 73.2131 120.146 72.977 120.119C72.741 120.092 72.5254 119.972 72.3777 119.786C72.2299 119.6 72.1622 119.362 72.1893 119.126C72.5781 115.716 69.0044 113.623 68.9703 113.602C68.7966 113.504 68.6608 113.351 68.5845 113.166C68.5081 112.982 68.4956 112.778 68.549 112.585C68.6023 112.393 68.7184 112.224 68.8788 112.106C69.0392 111.987 69.2347 111.926 69.434 111.931Z" fill="#044ECF"/>
<path d="M247.58 108.297C247.697 108.292 247.814 108.31 247.925 108.351C248.035 108.391 248.136 108.453 248.223 108.532C248.309 108.612 248.379 108.707 248.429 108.814C248.478 108.92 248.506 109.035 248.511 109.153C248.516 109.27 248.498 109.387 248.457 109.498C248.417 109.608 248.355 109.709 248.276 109.796C248.196 109.882 248.101 109.952 247.994 110.001C247.888 110.051 247.772 110.079 247.655 110.084C244.245 110.384 242.881 114.298 242.881 114.339C242.802 114.557 242.641 114.735 242.433 114.837C242.225 114.938 241.985 114.955 241.765 114.883C241.545 114.812 241.361 114.657 241.252 114.453C241.144 114.248 241.119 114.01 241.183 113.787C241.244 113.576 242.881 108.699 247.498 108.331L247.58 108.297Z" fill="#044ECF"/>
<path d="M82.0094 59.3533C79.5883 60.4855 77.4536 65.9278 78.1493 73.7436C78.8449 81.5593 62.6542 76.076 60.4514 84.8329C56.4753 100.683 83.1347 110.21 94.4968 100.683C101.528 94.7901 108.137 75.3667 107.168 64.7684C106.132 53.3722 88.4543 45.727 82.0094 59.3533Z" fill="#263238"/>
<path d="M107.59 79.3493C107.89 79.2606 108.326 79.1311 108.702 79.0083L109.875 78.6127C110.659 78.3399 111.436 78.0399 112.207 77.7193C113.742 77.089 115.241 76.3717 116.695 75.571C119.544 74.0509 122.107 72.0479 124.272 69.6513C126.202 67.3597 127.586 64.2362 128.67 61.0308C129.223 59.4213 129.687 57.764 130.082 56.0795C130.478 54.3949 130.853 52.6695 131.139 51.0122L133.922 51.1827C133.926 54.8709 133.526 58.5484 132.728 62.1493C132.323 63.9944 131.773 65.8049 131.085 67.5643C130.372 69.4215 129.415 71.1759 128.241 72.7816C125.839 75.8616 122.86 78.4445 119.47 80.3859C117.837 81.3514 116.142 82.208 114.396 82.9503C113.523 83.3185 112.643 83.6323 111.743 83.9664C111.3 84.1233 110.85 84.2733 110.379 84.4097C109.909 84.5461 109.493 84.6757 108.933 84.8121L107.59 79.3493Z" fill="#7F3E3B"/>
<path d="M133.909 52.1167L135.069 47.9497L130.465 48.3043C130.465 48.3043 130.138 51.0323 131.727 52.676L133.909 52.1167Z" fill="#7F3E3B"/>
<path d="M135.757 43.1011L131.556 44.1991L130.465 48.3047L135.068 47.9501L135.757 43.1011Z" fill="#7F3E3B"/>
<path d="M102.379 80.4134C104.5 78.4834 109.881 77.0034 109.881 77.0034L115.78 85.8694C115.78 85.8694 109.049 90.3638 106.191 89.3203C103.218 88.2837 100.401 82.2071 102.379 80.4134Z" fill="#044ECF"/>
<path d="M82.9531 206.522L86.6291 210.559L97.1796 203.044L93.5037 199.006L82.9531 206.522Z" fill="#7F3E3B"/>
<path d="M62.2031 222.475L67.134 224.923L74.3836 214.291L69.4528 211.842L62.2031 222.475Z" fill="#7F3E3B"/>
<path d="M67.9184 224.315L64.1128 219.439C64.0488 219.354 63.956 219.295 63.8517 219.274C63.7475 219.253 63.6391 219.27 63.5468 219.323L59.257 221.778C59.1509 221.843 59.0597 221.93 58.9895 222.033C58.9192 222.135 58.8716 222.252 58.8497 222.374C58.8278 222.497 58.8321 222.622 58.8623 222.743C58.8926 222.864 58.9481 222.976 59.0251 223.074C60.3891 224.752 61.1189 225.495 62.7966 227.644C63.8196 228.96 65.9065 232.029 67.3251 233.85C68.7436 235.671 70.6259 234.368 70.1963 233.481C68.273 229.505 68.1503 227.146 68.2185 225.25C68.2322 224.913 68.1259 224.581 67.9184 224.315Z" fill="#263238"/>
<path d="M87.7214 210.634L85.2116 204.605C85.1673 204.498 85.0883 204.407 84.987 204.349C84.8857 204.291 84.768 204.269 84.6524 204.285L79.3328 204.967C79.2062 204.98 79.0846 205.024 78.978 205.093C78.8714 205.163 78.7828 205.257 78.7196 205.367C78.6563 205.478 78.6202 205.602 78.6142 205.729C78.6082 205.856 78.6324 205.983 78.6849 206.099C79.5988 208.193 80.1512 209.168 81.256 211.821C81.938 213.451 83.5203 217.734 84.4546 220.005C85.389 222.276 87.7896 221.737 87.6123 220.742C86.8143 216.281 87.0871 213.403 87.7487 211.651C87.8114 211.488 87.8412 211.314 87.8365 211.14C87.8319 210.965 87.7927 210.794 87.7214 210.634Z" fill="#263238"/>
<path opacity="0.2" d="M97.1691 203.044L91.7336 206.918L87.6211 203.194L93.4931 199.006L97.1691 203.044Z" fill="black"/>
<path opacity="0.2" d="M69.4512 211.842L74.3821 214.291L70.6379 219.774L65.707 217.319L69.4512 211.842Z" fill="black"/>
<path d="M109.806 81.1016C109.806 81.1016 109.97 80.8561 106.983 113.442L84.6815 115.004C84.4223 105.906 85.1043 99.4815 80.8555 80.7879C83.9888 80.1569 87.164 79.7558 90.3557 79.5876C93.7354 79.3622 97.1269 79.3804 100.504 79.6421C104.862 80.0582 109.806 81.1016 109.806 81.1016Z" fill="#044ECF"/>
<path d="M82.533 86.1898C80.8758 85.426 79.4231 84.6076 77.9159 83.7415C76.4087 82.8753 74.9833 81.9478 73.5647 80.9657C70.6774 79.0055 67.9929 76.762 65.5512 74.2685L64.651 73.2932L64.4191 73.0477C64.2862 72.8949 64.161 72.7356 64.044 72.5703C63.8331 72.2695 63.6505 71.9499 63.4984 71.6155C63.0469 70.5498 62.8149 69.4039 62.8164 68.2464C62.8316 66.404 63.0791 64.5709 63.553 62.7904C64.4188 59.4583 65.6207 56.2226 67.1403 53.1333L69.7455 54.1427C69.3432 55.6908 68.9612 57.3003 68.6202 58.8757C68.2792 60.4512 67.9928 62.0402 67.8018 63.5952C67.5804 65.0573 67.521 66.5394 67.6245 68.0145C67.6586 68.5251 67.7881 69.0248 68.0064 69.4877C68.0064 69.5354 68.0746 69.59 68.0951 69.5968C68.0951 69.5968 68.1156 69.6036 68.0951 69.5968L68.3065 69.7946L69.1454 70.5925C71.4865 72.7127 73.9953 74.64 76.6474 76.3554C77.9773 77.2352 79.3754 78.0399 80.7394 78.8515C82.1034 79.6631 83.5697 80.4338 84.8996 81.1089L82.533 86.1898Z" fill="#7F3E3B"/>
<path d="M89.6335 82.0364C87.1033 78.5104 82.1315 78.565 82.1315 78.565L76.1367 87.431C76.1367 87.431 82.8271 91.9867 85.6847 90.9706C88.7128 89.893 91.1953 84.2051 89.6335 82.0364Z" fill="#044ECF"/>
<path d="M100.505 79.6429L90.3569 79.5884C88.8019 80.2158 87.9017 84.2601 98.1999 87.6837C105.34 83.6258 101.542 80.018 100.505 79.6429Z" fill="white"/>
<path d="M91.4194 68.1655C92.04 71.4323 92.647 77.4203 90.3555 79.589C90.3555 79.589 91.2421 82.9104 98.1985 87.6844C103.075 82.7944 100.504 79.6436 100.504 79.6436C96.8686 78.7502 96.9777 76.0494 97.6256 73.5056L91.4194 68.1655Z" fill="#7F3E3B"/>
<path opacity="0.2" d="M96.3413 72.3794L93.6133 72.6999C93.7454 73.4344 94.0088 74.139 94.3908 74.78C94.9295 75.5916 96.1299 75.9463 97.3165 75.9804C97.3152 75.1366 97.4299 74.2967 97.6575 73.4842L96.3413 72.3794Z" fill="black"/>
<path d="M85.385 64.8771C87.3833 69.9648 88.113 72.1608 91.598 73.9749C96.8358 76.7029 102.646 73.1497 102.21 67.571C101.821 62.5446 98.6226 55.0699 92.8734 54.6471C91.6072 54.5484 90.3369 54.7748 89.1828 55.3049C88.0288 55.8349 87.0293 56.651 86.2791 57.6758C85.529 58.7006 85.0531 59.9 84.8966 61.1603C84.7402 62.4206 84.9083 63.7 85.385 64.8771Z" fill="#7F3E3B"/>
<path d="M90.8614 53.9101C94.7419 56.2971 91.4206 70.3395 84.8529 69.5961C78.2853 68.8527 85.1257 50.3842 90.8614 53.9101Z" fill="#263238"/>
<path d="M90.7199 53.9645C87.7941 55.9082 89.7923 59.291 99.6541 57.2859C99.6541 57.2791 95.5757 50.7319 90.7199 53.9645Z" fill="#263238"/>
<path d="M86.0935 69.8216C86.5248 70.7854 87.3188 71.5402 88.3032 71.9221C89.6194 72.4132 90.3901 71.2401 90.131 69.9648C89.8923 68.7986 88.9238 67.1277 87.5598 67.1959C87.2617 67.216 86.9734 67.3102 86.721 67.47C86.4685 67.6298 86.26 67.8501 86.1144 68.1109C85.9687 68.3718 85.8905 68.6649 85.8869 68.9636C85.8832 69.2623 85.9543 69.5573 86.0935 69.8216Z" fill="#7F3E3B"/>
<path d="M106.995 113.443C106.995 113.443 118.93 152.406 119.892 169.169C120.887 186.608 94.9918 207.3 94.9918 207.3L88.5469 200.227C88.5469 200.227 109.587 182.359 106.702 169.415C102.712 151.573 90.627 114.589 90.627 114.589L106.995 113.443Z" fill="#263238"/>
<path opacity="0.2" d="M99.5601 126.196C98.4689 122.786 96.041 125.078 95.1953 128.692C96.8799 134.148 98.8304 140.532 100.685 146.922C101.402 141.262 101.695 132.88 99.5601 126.196Z" fill="black"/>
<path d="M86.8047 199.886L94.9819 208.323L98.4737 206.393L89.8328 196.988L86.8047 199.886Z" fill="#044ECF"/>
<path d="M101.097 113.858C101.097 113.858 97.6874 152.05 94.2774 173.321C91.5153 190.508 72.7535 218.579 72.7535 218.579L65.8789 215.38C65.8789 215.38 78.4891 185.325 80.4532 173.642C86.7549 136.248 78.2436 125.459 84.6885 114.99L101.097 113.858Z" fill="#263238"/>
<path d="M65.3945 215.456L73.1489 219.261L75.6927 216.104L66.6221 211.828L65.3945 215.456Z" fill="#044ECF"/>
<path d="M84.259 113.722L83.3928 115.768C83.3246 115.925 83.5156 116.075 83.7748 116.054L107.167 114.418C107.365 114.418 107.529 114.295 107.529 114.165L107.59 112.119C107.59 111.983 107.413 111.881 107.195 111.894L84.6068 113.477C84.5312 113.479 84.4581 113.504 84.3963 113.547C84.3345 113.591 84.2868 113.652 84.259 113.722Z" fill="white"/>
<path d="M87.4668 116.027L86.8667 116.068C86.7439 116.068 86.6484 116.02 86.6484 115.945L86.7507 113.333C86.7507 113.258 86.8599 113.183 86.9758 113.176L87.5828 113.135C87.7055 113.135 87.801 113.183 87.7942 113.258L87.6919 115.87C87.6919 115.959 87.5896 116.027 87.4668 116.027Z" fill="#263238"/>
<path d="M105.483 114.772L104.876 114.813C104.753 114.813 104.658 114.765 104.664 114.69L104.767 112.078C104.767 112.003 104.869 111.935 104.992 111.921L105.592 111.88C105.715 111.88 105.81 111.928 105.81 112.003L105.708 114.622C105.701 114.697 105.633 114.765 105.483 114.772Z" fill="#263238"/>
<path d="M96.4747 115.407L95.8677 115.448C95.7517 115.448 95.6562 115.4 95.6562 115.325L95.7586 112.706C95.7586 112.631 95.8609 112.563 95.9836 112.556L96.5906 112.515C96.7065 112.515 96.802 112.563 96.802 112.638L96.6997 115.25C96.6997 115.345 96.5974 115.393 96.4747 115.407Z" fill="#263238"/>
<path d="M93.6038 62.9674C93.2765 63.0765 93.1401 63.5676 93.3037 64.0722L94.4972 63.6903C94.3336 63.1856 93.9312 62.831 93.6038 62.9674Z" fill="#263238"/>
<path d="M98.8136 61.3173C98.4794 61.4265 98.343 61.9243 98.5067 62.429L99.707 62.0403C99.4956 61.5356 99.1069 61.215 98.8136 61.3173Z" fill="#263238"/>
<path d="M98.6406 61.3923L99.7386 60.6558C99.7386 60.6558 99.4249 61.8015 98.6406 61.3923Z" fill="#263238"/>
<path d="M97.4492 63.3774C98.1349 64.2197 98.9335 64.9633 99.8226 65.5871C99.6578 65.8109 99.446 65.9958 99.2021 66.1289C98.9582 66.2621 98.6882 66.3402 98.4108 66.3578L97.4492 63.3774Z" fill="#630F0F"/>
<path d="M97.5305 68.4778C97.5505 68.4605 97.565 68.4377 97.5723 68.4123C97.5796 68.3868 97.5793 68.3599 97.5715 68.3346C97.5606 68.3021 97.5372 68.2752 97.5066 68.2598C97.4759 68.2445 97.4404 68.2419 97.4078 68.2527C96.8861 68.4334 96.3293 68.4892 95.7821 68.4158C95.2349 68.3423 94.7126 68.1417 94.257 67.8299C94.2449 67.8177 94.2306 67.8081 94.2148 67.8015C94.199 67.7949 94.182 67.7915 94.1649 67.7915C94.1478 67.7915 94.1308 67.7949 94.115 67.8015C94.0992 67.8081 94.0849 67.8177 94.0728 67.8299C94.0598 67.8414 94.0493 67.8556 94.0421 67.8715C94.035 67.8873 94.0312 67.9046 94.0313 67.922C94.0312 67.9394 94.035 67.9566 94.0421 67.9725C94.0493 67.9884 94.0598 68.0025 94.0728 68.014C94.5603 68.3633 95.1252 68.5891 95.7191 68.6723C96.313 68.7554 96.9182 68.6934 97.4828 68.4914L97.5305 68.4778Z" fill="#263238"/>
<path d="M91.8745 62.6614C91.909 62.6326 91.935 62.5949 91.9495 62.5523C92.0433 62.2349 92.2127 61.945 92.4431 61.7074C92.6736 61.4698 92.9582 61.2917 93.2726 61.1883C93.3058 61.1802 93.337 61.1657 93.3645 61.1456C93.392 61.1255 93.4153 61.1001 93.4331 61.071C93.4508 61.0419 93.4626 61.0095 93.4679 60.9758C93.4731 60.9421 93.4716 60.9077 93.4636 60.8746C93.4555 60.8415 93.441 60.8102 93.4209 60.7827C93.4008 60.7552 93.3754 60.7319 93.3463 60.7141C93.3171 60.6964 93.2848 60.6846 93.2511 60.6793C93.2174 60.6741 93.183 60.6756 93.1499 60.6836C92.7546 60.8081 92.3948 61.0254 92.1006 61.3172C91.8064 61.6091 91.5862 61.9671 91.4585 62.3613C91.4369 62.4265 91.442 62.4975 91.4727 62.5589C91.5034 62.6202 91.5571 62.6669 91.6222 62.6887C91.6627 62.7076 91.7077 62.715 91.7521 62.7102C91.7966 62.7054 91.8389 62.6885 91.8745 62.6614Z" fill="#263238"/>
<path d="M100.047 59.2927C100.061 59.285 100.073 59.2731 100.081 59.2586C100.103 59.2319 100.119 59.201 100.129 59.1679C100.138 59.1348 100.141 59.1001 100.138 59.0658C100.134 59.0315 100.123 58.9983 100.106 58.9682C100.09 58.938 100.067 58.9116 100.04 58.8903C99.7207 58.6263 99.3432 58.4423 98.9388 58.3533C98.5344 58.2643 98.1145 58.2731 97.7141 58.3788C97.6811 58.3895 97.6506 58.4068 97.6244 58.4295C97.5982 58.4523 97.5768 58.4801 97.5616 58.5112C97.5463 58.5424 97.5375 58.5763 97.5355 58.611C97.5336 58.6456 97.5387 58.6803 97.5505 58.713C97.5737 58.777 97.6206 58.8296 97.6815 58.8601C97.7424 58.8905 97.8127 58.8965 97.8778 58.8766C98.1951 58.7951 98.5274 58.7909 98.8466 58.8645C99.1659 58.9381 99.4628 59.0873 99.7124 59.2995C99.7599 59.338 99.8196 59.3584 99.8807 59.3572C99.9419 59.3559 100.001 59.3331 100.047 59.2927Z" fill="#263238"/>
<path d="M66.5361 55.3637L65.6836 49.9077L71.2487 52.6357C71.039 53.5542 70.5648 54.3912 69.8847 55.0432C69.6048 55.3619 69.2406 55.595 68.8339 55.7157C68.4273 55.8363 67.9948 55.8396 67.5864 55.7252L66.5361 55.3637Z" fill="#7F3E3B"/>
<path d="M68.8072 47.2339L71.6579 49.7368L71.2487 52.6012L65.6836 49.9005L68.8072 47.2339Z" fill="#7F3E3B"/>
<path d="M69.7081 226.927C69.7659 226.886 69.8206 226.84 69.8718 226.791C69.9302 226.738 69.9732 226.67 69.996 226.594C70.0188 226.518 70.0207 226.438 70.0013 226.361C69.8377 225.679 67.9553 224.997 67.7439 224.949C67.7206 224.939 67.6946 224.937 67.67 224.943C67.6453 224.95 67.6234 224.964 67.6075 224.983C67.5935 225.005 67.5859 225.03 67.5859 225.055C67.5859 225.081 67.5935 225.105 67.6075 225.127C67.9144 225.809 68.5282 226.927 69.2171 227.043C69.3895 227.069 69.5653 227.027 69.7081 226.927ZM67.9553 225.304C68.6987 225.584 69.6604 226.061 69.749 226.423C69.7554 226.456 69.7524 226.492 69.7404 226.524C69.7284 226.556 69.7078 226.585 69.6808 226.607C69.6289 226.673 69.5608 226.724 69.4832 226.757C69.4056 226.789 69.321 226.801 69.2375 226.791C68.8624 226.723 68.3986 226.177 67.9553 225.304Z" fill="#044ECF"/>
<path d="M70.051 225.106C70.0955 225.08 70.1348 225.045 70.167 225.004C70.2335 224.923 70.2699 224.822 70.2699 224.718C70.2699 224.613 70.2335 224.512 70.167 224.431C70.1163 224.345 70.0472 224.271 69.9647 224.214C69.8822 224.158 69.7883 224.12 69.6896 224.104C68.9053 223.961 67.6436 224.929 67.5958 224.97C67.5781 224.985 67.5645 225.004 67.5561 225.025C67.5478 225.047 67.545 225.07 67.5481 225.093C67.5519 225.114 67.5606 225.135 67.5736 225.153C67.5866 225.17 67.6036 225.185 67.6231 225.195C68.4164 225.461 69.2792 225.429 70.051 225.106ZM68.005 225.004C68.472 224.623 69.0471 224.399 69.6486 224.363C69.7114 224.371 69.7713 224.393 69.8235 224.429C69.8758 224.464 69.9187 224.512 69.9487 224.568C70.0374 224.711 69.9965 224.786 69.9487 224.834C69.7032 225.127 68.5847 225.181 67.9641 225.024L68.005 225.004Z" fill="#044ECF"/>
<path d="M87.8449 213.724C87.9836 214.15 88.2532 214.523 88.6156 214.788C88.7176 214.848 88.8317 214.885 88.9496 214.895C89.0676 214.906 89.1865 214.89 89.2976 214.849C89.3639 214.83 89.4239 214.794 89.4708 214.743C89.5177 214.693 89.5498 214.63 89.5635 214.563C89.7068 213.881 87.9199 212.196 87.5585 211.835C87.5362 211.82 87.5101 211.812 87.4834 211.812C87.4568 211.812 87.4307 211.82 87.4084 211.835C87.3846 211.847 87.3657 211.868 87.3546 211.892C87.3435 211.917 87.3408 211.945 87.347 211.971C87.4477 212.572 87.6147 213.16 87.8449 213.724ZM89.2635 214.235C89.3021 214.313 89.3186 214.401 89.3112 214.487C89.3112 214.522 89.3112 214.556 89.2157 214.583C89.1361 214.614 89.0505 214.626 88.9655 214.619C88.8805 214.612 88.7982 214.585 88.7247 214.542C88.3087 214.297 87.9267 213.478 87.6812 212.319C88.3024 212.874 88.8358 213.52 89.2635 214.235Z" fill="#044ECF"/>
<path d="M87.3739 212.019C87.372 212.033 87.372 212.047 87.3739 212.06C87.9332 212.626 89.6041 213.54 90.1429 213.227C90.2588 213.158 90.3816 213.008 90.2861 212.681C89.9383 211.426 87.5581 211.822 87.4421 211.842C87.4183 211.845 87.3959 211.855 87.3777 211.871C87.3595 211.887 87.3463 211.908 87.3398 211.931C87.3402 211.963 87.3523 211.995 87.3739 212.019ZM90.0338 212.667L90.0678 212.749C90.0678 212.886 90.0678 212.967 90.0678 213.001C89.7541 213.179 88.4924 212.592 87.8241 212.06C88.3833 211.999 89.7337 211.944 90.0338 212.667Z" fill="#044ECF"/>
<path d="M93.4648 63.0437L94.5629 62.3003C94.5629 62.3003 94.2491 63.4529 93.4648 63.0437Z" fill="#263238"/>
<path d="M182.633 241.699L177.347 241.706L175.922 229.471L181.207 229.464L182.633 241.699Z" fill="#FFC3BD"/>
<path d="M228.13 218.99L224.126 222.448L215.062 214.107L219.059 210.649L228.13 218.99Z" fill="#FFC3BD"/>
<path d="M223.345 222.311L228.214 218.096C228.294 218.03 228.394 217.994 228.497 217.994C228.601 217.994 228.701 218.03 228.78 218.096L232.49 221.056C232.581 221.132 232.653 221.227 232.703 221.334C232.753 221.441 232.779 221.558 232.779 221.676C232.779 221.794 232.753 221.911 232.703 222.018C232.653 222.126 232.581 222.221 232.49 222.297C230.901 223.627 229.68 224.52 227.716 226.225C226.502 227.275 222.942 230.576 221.265 232.029C219.587 233.482 217.998 231.947 218.537 231.197C221.06 227.842 222.629 224.868 222.874 223.102C222.935 222.791 223.101 222.512 223.345 222.311Z" fill="#263238"/>
<path d="M177.377 241.092H183.154C183.259 241.093 183.36 241.129 183.442 241.194C183.524 241.26 183.581 241.351 183.604 241.454L184.654 246.153C184.68 246.266 184.68 246.384 184.654 246.497C184.628 246.61 184.576 246.716 184.503 246.806C184.431 246.897 184.338 246.97 184.233 247.019C184.128 247.069 184.014 247.095 183.897 247.094C181.81 247.06 178.803 246.944 176.184 246.944C173.129 246.944 171.335 247.026 167.748 247.032C165.579 247.032 164.972 244.843 165.879 244.645C170.012 243.732 172.535 243.725 176.109 241.515C176.484 241.259 176.924 241.112 177.377 241.092Z" fill="#263238"/>
<path d="M160.2 89.7768C159.136 89.3676 158.222 88.9925 157.268 88.556C156.313 88.1196 155.392 87.6899 154.465 87.233C152.614 86.3236 150.795 85.3097 149.009 84.1913C147.21 83.0892 145.482 81.8775 143.832 80.563C143.416 80.222 142.993 79.881 142.584 79.5332L141.37 78.4215C140.968 78.0532 140.586 77.6304 140.197 77.2348C139.999 77.0166 139.829 76.8598 139.604 76.6006C139.379 76.3414 139.16 76.0891 138.963 75.8299C138.217 74.844 137.583 73.778 137.074 72.6518C136.599 71.6234 136.196 70.5639 135.866 69.4805C135.24 67.4349 134.783 65.3408 134.502 63.2198C133.964 59.1366 133.862 55.0078 134.196 50.9028H138.165C138.438 52.7511 138.724 54.6947 139.099 56.5634C139.474 58.4321 139.87 60.3008 140.354 62.1013C140.812 63.86 141.391 65.585 142.086 67.264C142.664 68.7486 143.476 70.1303 144.494 71.356L144.828 71.697C144.93 71.8061 145.135 71.9698 145.285 72.1062C145.612 72.3858 145.912 72.6791 146.26 72.9451C146.942 73.4907 147.624 74.0294 148.388 74.5478C149.861 75.5708 151.416 76.546 153.039 77.4599C154.662 78.3738 156.32 79.2399 158.004 80.0583C158.85 80.4743 159.702 80.8835 160.555 81.2655C161.407 81.6474 162.301 82.0498 163.065 82.3771L160.2 89.7768Z" fill="#FFC3BD"/>
<path d="M161.045 94.2788C158.035 92.4079 155.192 90.2813 152.547 87.9226L154.654 77.1538C158.573 78.2684 162.556 79.1385 166.582 79.7591C173.232 80.6184 165.784 97.1023 161.045 94.2788Z" fill="#263238"/>
<path d="M138.3 51.8302L138.675 45.0989L133.083 46.8925C133.083 46.8925 131.78 51.7143 135.409 52.9828L138.3 51.8302Z" fill="#FFC3BD"/>
<path d="M137.999 41.478L133.382 43.4013L133.082 46.8931L138.674 45.0994L137.999 41.478Z" fill="#FFC3BD"/>
<path opacity="0.2" d="M175.926 229.471L176.656 235.78L181.941 235.773L181.211 229.464L175.926 229.471Z" fill="black"/>
<path opacity="0.2" d="M219.066 210.649L215.062 214.107L219.741 218.403L223.738 214.946L219.066 210.649Z" fill="black"/>
<path d="M186.906 79.5399C186.918 79.1656 186.855 78.7927 186.722 78.4426C186.589 78.0925 186.388 77.7723 186.131 77.5003C185.873 77.2283 185.565 77.01 185.222 76.8579C184.88 76.7058 184.511 76.6229 184.137 76.6141C169.051 76.3345 159.237 80.5629 158.562 80.8357C158.31 80.9373 158.088 81.1015 157.918 81.3127C157.747 81.524 157.633 81.7753 157.587 82.0428C156.959 85.8211 155.179 101.657 163.902 126.441L191.864 122.438C191.489 118.312 186.278 99.3793 186.906 79.5399Z" fill="#263238"/>
<path d="M164.292 78.9328C162.634 81.1493 161.884 86.2575 167.374 89.9948C174.126 84.9548 177.604 79.533 178.634 76.7095C173.789 76.9525 168.983 77.6976 164.292 78.9328Z" fill="white"/>
<path d="M174.368 63.7456C174.164 67.6807 174.416 74.8008 177.458 76.9696C175.671 79.3361 173.291 82.1119 168.769 82.9235C166.041 83.4077 165.107 82.3983 164.991 81.123C164.952 80.5078 165.088 79.8942 165.382 79.3526C165.677 78.811 166.118 78.3633 166.655 78.0608C169.594 76.3558 169.008 73.6141 167.951 71.0225L174.368 63.7456Z" fill="#FFC3BD"/>
<path d="M186.651 79.3149C187.394 79.9969 188.015 80.5698 188.642 81.2245C189.269 81.8793 189.883 82.5135 190.49 83.1682C191.704 84.4777 192.85 85.8553 193.955 87.2602C196.257 90.1721 198.184 93.3616 199.69 96.7537C200.07 97.661 200.403 98.5875 200.686 99.5294C200.829 100.007 200.952 100.505 201.068 101.009L201.109 101.194L201.17 101.514C201.211 101.725 201.232 101.951 201.252 102.196C201.285 102.651 201.271 103.108 201.211 103.56C201.11 104.375 200.863 105.165 200.482 105.892C200.162 106.498 199.776 107.065 199.329 107.584C198.59 108.428 197.739 109.167 196.799 109.78C195.195 110.83 193.468 111.677 191.656 112.303C190.797 112.617 189.931 112.883 189.058 113.108C188.185 113.333 187.339 113.545 186.391 113.701L185.164 109.93C185.846 109.548 186.576 109.146 187.264 108.736C187.953 108.327 188.628 107.898 189.31 107.468C190.578 106.667 191.772 105.754 192.877 104.74C193.301 104.331 193.674 103.873 193.989 103.376C194.228 102.987 194.207 102.728 194.139 102.81C194.134 102.832 194.134 102.856 194.139 102.878L194.098 102.755C193.996 102.442 193.9 102.121 193.764 101.794C193.511 101.128 193.222 100.477 192.898 99.8431C192.213 98.4961 191.433 97.1993 190.565 95.9626C189.699 94.6804 188.744 93.4255 187.735 92.1979C186.726 90.9703 185.689 89.7632 184.591 88.5697C184.052 87.9763 183.5 87.3966 182.94 86.8238C182.381 86.2509 181.795 85.6507 181.297 85.1733L186.651 79.3149Z" fill="#FFC3BD"/>
<path d="M184.892 76.7306C187.975 77.1875 192.81 84.9146 192.81 84.9146L184.96 95.4378C184.96 95.4378 180.773 91.4481 179.552 87.9358C177.247 81.1977 178.836 75.844 184.892 76.7306Z" fill="#263238"/>
<path opacity="0.2" d="M171.749 66.7124L167.957 71.0158C168.243 71.6769 168.471 72.3614 168.639 73.0618C170.235 72.5912 172.22 70.4839 172.151 68.7516C172.141 68.0532 172.004 67.3625 171.749 66.7124Z" fill="black"/>
<path d="M163.782 52.5539C162.098 55.4865 163.175 59.6604 163.175 59.6604C163.627 59.9542 164.149 60.1218 164.688 60.1457C165.226 60.1697 165.761 60.0492 166.238 59.7968L165.76 52.022L163.782 52.5539Z" fill="#263238"/>
<path d="M177.06 60.0012C175.771 65.0889 175.273 68.1307 172.177 70.279C167.519 73.5116 161.613 69.9516 161.361 64.5843C161.129 59.7489 163.277 52.2469 168.706 51.1557C169.9 50.9083 171.137 50.9706 172.301 51.3366C173.464 51.7026 174.514 52.3602 175.352 53.2468C176.189 54.1334 176.786 55.2194 177.085 56.4017C177.384 57.584 177.375 58.8231 177.06 60.0012Z" fill="#FFC3BD"/>
<path d="M166.765 66.6126C166.785 66.5952 166.799 66.5725 166.807 66.547C166.814 66.5216 166.814 66.4946 166.806 66.4694C166.795 66.4368 166.772 66.4099 166.741 66.3946C166.71 66.3793 166.675 66.3767 166.642 66.3875C166.12 66.5681 165.564 66.624 165.016 66.5505C164.469 66.4771 163.947 66.2765 163.491 65.9647C163.479 65.9525 163.465 65.9428 163.449 65.9362C163.433 65.9297 163.416 65.9263 163.399 65.9263C163.382 65.9263 163.365 65.9297 163.349 65.9362C163.334 65.9428 163.319 65.9525 163.307 65.9647C163.294 65.9762 163.284 65.9904 163.276 66.0062C163.269 66.0221 163.266 66.0393 163.266 66.0567C163.266 66.0742 163.269 66.0914 163.276 66.1072C163.284 66.1231 163.294 66.1373 163.307 66.1488C163.795 66.4981 164.36 66.7239 164.953 66.8071C165.547 66.8902 166.153 66.8281 166.717 66.6262L166.765 66.6126Z" fill="#263238"/>
<path d="M173.899 57.2049C173.899 55.2681 172.439 53.8563 167.57 54.2314C163.594 54.5315 161.657 52.6765 162.796 50.0917C166.015 51.7694 165.483 49.5734 171.621 49.3074C177.759 49.0414 179.539 51.3534 180.187 54.9475C183.945 60.5195 177.459 62.8314 177.459 62.8314L174.922 65.0479C174.396 65.1674 173.848 65.1438 173.335 64.9794C172.821 64.8151 172.361 64.5161 172.003 64.1136C172.003 64.1136 171.505 59.5919 173.899 57.2049Z" fill="#263238"/>
<path d="M177.705 66.2419C176.708 66.9225 175.485 67.1868 174.295 66.9784C172.747 66.6783 172.747 65.1097 173.818 63.9981C174.78 62.9955 176.751 61.9521 177.992 62.8182C179.233 63.6844 178.94 65.3894 177.705 66.2419Z" fill="#FFC3BD"/>
<path d="M174.671 234.566H183.619C183.619 234.566 182.214 202.744 180.284 186.39C179.697 181.411 180.332 174.591 180.393 166.973C180.475 157.377 180.918 146.922 181.355 138.718C181.818 130.077 182.207 123.85 182.207 123.85L163.902 126.462C163.902 126.462 162.088 171.767 164.932 187.644C167.892 204.135 174.671 234.566 174.671 234.566Z" fill="#044ECF"/>
<path opacity="0.2" d="M180.392 166.952C180.474 157.357 180.917 146.902 181.354 138.697L178.626 135.048C175.257 141.357 177.596 158.155 180.392 166.952Z" fill="black"/>
<path d="M172.625 125.193C172.625 125.193 183.994 170.089 189.395 184.609C195.308 200.5 217.085 219.077 217.085 219.077L222.588 213.021C222.588 213.021 211.069 195.064 202.578 177.789C198.521 155.358 191.892 122.438 191.892 122.438L172.625 125.193Z" fill="#044ECF"/>
<path d="M216.35 219.992L224.978 212.537L222.748 209.966L212.961 218.13L216.35 219.992Z" fill="#263238"/>
<path d="M173.544 234.77L184.21 234.757L184.204 231.313L172.289 231.149L173.544 234.77Z" fill="#263238"/>
<path d="M169.2 59.0055C168.859 58.9032 168.457 59.2306 168.293 59.7421L169.507 60.1308C169.671 59.6193 169.534 59.1146 169.2 59.0055Z" fill="#263238"/>
<path d="M163.881 58.0024C163.533 58.0024 163.199 58.398 163.199 58.9368L164.468 59.0186C164.488 58.4798 164.236 58.057 163.881 58.0024Z" fill="#263238"/>
<path d="M165.715 59.5581C164.973 60.7439 164.071 61.8224 163.035 62.7635C163.284 63.0218 163.586 63.2227 163.921 63.3522C164.255 63.4818 164.614 63.5369 164.972 63.5137L165.715 59.5581Z" fill="#ED847E"/>
<path d="M170.934 58.4591C170.977 58.4692 171.021 58.4692 171.064 58.4591C171.127 58.4387 171.179 58.3944 171.21 58.3357C171.241 58.277 171.247 58.2087 171.228 58.1454C171.121 57.7625 170.925 57.4108 170.654 57.12C170.383 56.8292 170.047 56.6078 169.673 56.4745C169.641 56.4641 169.608 56.4604 169.575 56.4635C169.542 56.4666 169.511 56.4764 169.482 56.4924C169.453 56.5085 169.428 56.5303 169.408 56.5565C169.388 56.5828 169.373 56.6129 169.366 56.645C169.356 56.6763 169.353 56.7092 169.357 56.7417C169.36 56.7742 169.37 56.8057 169.386 56.8343C169.402 56.8629 169.424 56.888 169.449 56.9082C169.475 56.9284 169.505 56.9432 169.536 56.9519C169.833 57.0659 170.098 57.2492 170.309 57.4865C170.52 57.7238 170.671 58.0082 170.75 58.3159C170.768 58.3522 170.794 58.3839 170.826 58.4087C170.858 58.4335 170.895 58.4508 170.934 58.4591Z" fill="#263238"/>
<path d="M162.305 57.2869C162.346 57.2938 162.388 57.2906 162.427 57.2775C162.466 57.2645 162.501 57.2419 162.53 57.2119C162.735 56.9751 162.994 56.79 163.284 56.6715C163.574 56.5531 163.888 56.5046 164.201 56.5299C164.267 56.5397 164.334 56.523 164.388 56.4833C164.441 56.4437 164.477 56.3845 164.487 56.3185C164.497 56.2543 164.481 56.1889 164.443 56.1365C164.404 56.0841 164.347 56.049 164.283 56.0389C163.887 55.9998 163.488 56.0562 163.119 56.2034C162.75 56.3506 162.422 56.5842 162.162 56.8846C162.138 56.9075 162.119 56.935 162.106 56.9655C162.093 56.996 162.086 57.0288 162.086 57.0619C162.086 57.095 162.093 57.1278 162.106 57.1583C162.119 57.1888 162.138 57.2163 162.162 57.2392C162.204 57.268 162.254 57.2845 162.305 57.2869Z" fill="#263238"/>
<path d="M222.594 224.179C222.941 223.862 223.252 223.507 223.522 223.122C223.535 223.102 223.542 223.078 223.542 223.054C223.542 223.029 223.535 223.005 223.522 222.985C223.511 222.963 223.494 222.944 223.471 222.933C223.449 222.922 223.423 222.919 223.399 222.924C223.181 222.924 221.237 223.244 220.985 223.865C220.957 223.933 220.947 224.007 220.957 224.08C220.966 224.153 220.995 224.223 221.039 224.281C221.104 224.386 221.194 224.473 221.301 224.534C221.409 224.595 221.53 224.628 221.653 224.629C222.009 224.592 222.342 224.433 222.594 224.179ZM223.14 223.224C222.574 223.954 222.028 224.377 221.66 224.377C221.576 224.374 221.495 224.351 221.423 224.308C221.351 224.265 221.292 224.204 221.251 224.131C221.235 224.107 221.226 224.078 221.226 224.049C221.226 224.02 221.235 223.992 221.251 223.967C221.346 223.647 222.362 223.36 223.14 223.224Z" fill="#044ECF"/>
<path d="M223.501 223.149C223.519 223.132 223.533 223.111 223.542 223.087C223.552 223.067 223.558 223.045 223.558 223.023C223.558 223 223.552 222.978 223.542 222.958C223.494 222.91 222.451 221.798 221.673 221.805C221.578 221.805 221.484 221.826 221.397 221.864C221.31 221.903 221.233 221.96 221.169 222.03C221.097 222.093 221.048 222.179 221.03 222.273C221.013 222.367 221.028 222.464 221.073 222.549C221.353 223.081 222.874 223.299 223.474 223.176L223.501 223.149ZM221.36 222.167C221.439 222.098 221.541 222.062 221.646 222.064C222.144 222.064 222.826 222.644 223.153 222.951C222.471 222.985 221.428 222.74 221.257 222.426C221.257 222.392 221.21 222.324 221.319 222.208L221.36 222.167Z" fill="#044ECF"/>
<path d="M176.86 241.83C176.882 241.822 176.901 241.808 176.916 241.79C176.93 241.772 176.939 241.75 176.942 241.727C176.948 241.702 176.945 241.675 176.934 241.652C176.923 241.628 176.904 241.609 176.881 241.598C176.635 241.475 174.514 240.397 173.873 240.759C173.811 240.791 173.76 240.839 173.722 240.898C173.685 240.956 173.664 241.024 173.661 241.093C173.647 241.206 173.662 241.321 173.704 241.427C173.745 241.533 173.813 241.627 173.9 241.7C174.48 242.211 175.994 242 176.846 241.83H176.86ZM174.037 240.957C174.439 240.82 175.592 241.257 176.43 241.639C175.264 241.836 174.384 241.789 174.064 241.495C174.007 241.447 173.963 241.384 173.937 241.314C173.911 241.243 173.903 241.167 173.914 241.093C173.914 241.066 173.921 241.039 173.936 241.016C173.95 240.993 173.971 240.975 173.996 240.963L174.037 240.957Z" fill="#044ECF"/>
<path d="M176.86 241.829H176.894C176.912 241.815 176.926 241.798 176.935 241.777C176.945 241.757 176.949 241.735 176.949 241.713C176.949 241.658 176.792 240.233 176.124 239.667C176.03 239.587 175.921 239.528 175.804 239.491C175.687 239.455 175.564 239.443 175.442 239.456C175.094 239.456 174.998 239.667 174.978 239.803C174.882 240.404 176.144 241.542 176.785 241.849C176.812 241.85 176.838 241.843 176.86 241.829ZM175.326 239.722H175.455C175.546 239.711 175.638 239.72 175.725 239.749C175.812 239.777 175.892 239.823 175.96 239.885C176.349 240.343 176.587 240.91 176.642 241.508C175.994 241.12 175.128 240.226 175.189 239.865C175.203 239.817 175.203 239.756 175.326 239.722Z" fill="#044ECF"/>
<path d="M185.81 109.576L180.723 111.185L184.671 115.114C184.671 115.114 189.282 113.115 187.836 111.083L185.81 109.576Z" fill="#FFC3BD"/>
<path d="M178.629 115.673L182.25 117.869L184.671 115.113L180.723 111.185L178.629 115.673Z" fill="#FFC3BD"/>
<path d="M256.114 65.2913C254.481 67.5706 253.376 70.1853 252.88 72.9451C252.403 75.6869 252.88 78.4215 253.018 81.1705C253.235 84.7876 252.453 87.8187 250.052 90.575C248.149 92.7452 245.849 94.5538 244.127 96.8977C240.669 101.607 239.888 106.874 240.597 112.567C241.4 119.013 242.897 125.075 239.794 131.195C238.13 134.48 235.93 137.475 234.766 141.005C233.725 144.441 233.28 148.031 233.449 151.617C233.449 152.015 234.209 152.138 234.216 151.697C234.157 148.275 234.598 144.863 235.525 141.569C236.473 138.545 238.18 135.89 239.728 133.148C241.298 130.569 242.285 127.678 242.622 124.677C242.764 121.979 242.582 119.273 242.08 116.618C241.602 113.529 241.023 110.397 241.175 107.264C241.364 104.155 242.348 101.146 244.033 98.5254C246.999 93.8159 252.757 90.9222 253.748 85.0697C254.226 82.2339 253.618 79.3547 253.481 76.5189C253.293 72.5834 254.588 68.9953 256.49 65.6096C256.613 65.3998 256.259 65.0598 256.1 65.2841L256.114 65.2913Z" fill="#37474F"/>
<path d="M29.4772 65.2913C27.844 67.5706 26.7393 70.1853 26.2436 72.9451C25.7661 75.6869 26.2435 78.4215 26.381 81.1705C26.598 84.7876 25.8167 87.8187 23.415 90.575C21.5124 92.7452 19.2119 94.5538 17.4901 96.8977C14.0322 101.607 13.2509 106.874 13.9598 112.567C14.7628 119.013 16.2603 125.075 13.1568 131.195C11.4929 134.48 9.29375 137.475 8.12904 141.005C7.08832 144.441 6.64302 148.031 6.8124 151.617C6.8124 152.015 7.57199 152.138 7.57923 151.697C7.52004 148.275 7.96117 144.863 8.88862 141.569C9.83631 138.545 11.5436 135.89 13.0917 133.148C14.661 130.569 15.6485 127.678 15.9854 124.677C16.1271 121.979 15.945 119.273 15.4428 116.618C14.9654 113.529 14.3866 110.397 14.5386 107.264C14.7275 104.155 15.7114 101.146 17.3961 98.5254C20.3621 93.8159 26.1206 90.9222 27.1117 85.0697C27.5891 82.2339 26.9814 79.3547 26.844 76.5189C26.6559 72.5834 27.9508 68.9953 29.8534 65.6096C29.9764 65.3998 29.6219 65.0598 29.4628 65.2841L29.4772 65.2913Z" fill="#37474F"/>
<path opacity="0.1" d="M257.064 71.7584C257.31 70.6154 255.617 66.9621 255.19 66.8608C254.763 66.7595 251.934 69.3566 251.667 70.572C251.637 70.8142 251.671 71.0602 251.766 71.285C251.862 71.5098 252.014 71.7055 252.209 71.8524C252.735 72.2803 253.354 72.579 254.016 72.7248C254.678 72.8705 255.365 72.8591 256.022 72.6916C256.262 72.6407 256.484 72.5277 256.667 72.364C256.85 72.2002 256.987 71.9914 257.064 71.7584Z" fill="black"/>
<path opacity="0.1" d="M30.4269 71.7584C30.6728 70.6154 28.98 66.9621 28.5532 66.8608C28.1264 66.7595 25.2978 69.3566 25.0301 70.572C25 70.8142 25.0344 71.0602 25.1296 71.285C25.2249 71.5098 25.3777 71.7055 25.5727 71.8524C26.0985 72.2803 26.7172 72.579 27.3792 72.7248C28.0413 72.8705 28.7283 72.8591 29.3851 72.6916C29.6252 72.6407 29.8477 72.5277 30.0305 72.364C30.2133 72.2002 30.35 71.9914 30.4269 71.7584Z" fill="black"/>
<path d="M275.508 49.8752C273.591 58.6069 264.31 68.1344 254.891 68.2501C246.427 63.7432 241.956 51.6548 243.88 42.9303C245.805 34.2059 253.22 27.2755 263.413 29.5181C273.606 31.7607 277.433 41.1001 275.508 49.8752Z" fill="#044ECF"/>
<path d="M48.8756 49.8752C46.9585 58.6069 37.677 68.1344 28.258 68.2501C19.794 63.7432 15.3232 51.6548 17.2475 42.9303C19.1718 34.2059 26.5869 27.2755 36.7799 29.5181C46.973 31.7607 50.7999 41.1001 48.8756 49.8752Z" fill="#044ECF"/>
<path opacity="0.05" d="M243.558 47.5964C243.558 47.5964 244.072 56.4945 254.294 59.446C264.147 62.2891 274.694 53.1016 275.997 45.7661C275.973 47.1362 275.813 48.5006 275.519 49.839C273.602 58.5707 264.321 68.0982 254.902 68.2139C247.884 64.4811 243.623 55.5396 243.457 47.6108L243.558 47.5964Z" fill="black"/>
<path opacity="0.05" d="M16.9177 47.5964C16.9177 47.5964 17.4313 56.4945 27.6533 59.446C37.5063 62.2891 48.0538 53.1016 49.356 45.7661C49.3328 47.1362 49.1729 48.5006 48.8785 49.839C46.9615 58.5707 37.6799 68.0982 28.261 68.2139C21.2438 64.4811 16.9828 55.5396 16.8164 47.6108L16.9177 47.5964Z" fill="black"/>
</svg>
