<svg width="32" height="28" viewBox="0 0 32 28" fill="none" xmlns="http://www.w3.org/2000/svg">
<path d="M9.5625 5.5C11.1875 5.5 12.5625 6.875 12.5625 8.5C12.5625 10.1875 11.1875 11.5 9.5625 11.5C7.875 11.5 6.5625 10.1875 6.5625 8.5C6.5625 6.875 7.875 5.5 9.5625 5.5ZM28 0C30.25 0 32 1.8125 32 4V24C32 26.25 30.1875 28 28 28H4C1.8125 28 0 26.25 0 24V4C0 1.8125 1.8125 0 4 0H28ZM29 23.625V4C29 3.5 28.5625 3 28 3H4C3.5 3 3 3.5 3 4L3.0625 24L7.75 18.125C8 17.875 8.3125 17.6875 8.6875 17.6875C9.0625 17.6875 9.375 17.875 9.625 18.125L11.9375 21L18.5625 12C18.8125 11.6875 19.125 11.5 19.5625 11.5C19.9375 11.5 20.25 11.6875 20.4375 12L29 23.625Z" fill="#044ECF"/>
</svg>
