<svg width="38" height="37" viewBox="0 0 38 37" fill="none" xmlns="http://www.w3.org/2000/svg">
<path d="M25.2892 11.1172L35.3439 12.5938C36.1877 12.7344 36.8908 13.2969 37.172 14.1406C37.4533 14.9141 37.2423 15.8281 36.6095 16.3906L29.297 23.6328L31.0548 33.8984C31.1955 34.7422 30.8439 35.5859 30.1408 36.0781C29.4377 36.6406 28.5236 36.6406 27.7502 36.2891L18.7502 31.4375L9.67984 36.2891C8.97672 36.6406 7.99235 36.6406 7.35953 36.0781C6.65641 35.5859 6.30485 34.7422 6.44547 33.8984L8.13297 23.6328L0.82047 16.3906C0.187658 15.8281 -0.0232798 14.9141 0.25797 14.1406C0.53922 13.2969 1.24235 12.7344 2.0861 12.5938L12.2111 11.1172L16.7111 1.76562C17.0627 0.992188 17.8361 0.5 18.7502 0.5C19.5939 0.5 20.3673 0.992188 20.7189 1.76562L25.2892 11.1172Z" fill="white"/>
</svg>
